<?xml version="1.0" encoding="UTF-8"?>
<svg width="126px" height="24px" viewBox="0 0 126 24" version="1.1" xmlns="http://www.w3.org/2000/svg" xmlns:xlink="http://www.w3.org/1999/xlink">
    <!-- Generator: Sketch 52.4 (67378) - http://www.bohemiancoding.com/sketch -->
    <title>Atoms / Images / Logos / Betrating</title>
    <desc>Created with Sketch.</desc>
    <defs>
        <path d="M62.0120551,8.54661964 L58.1059615,31.4535419 C58.047908,31.7625031 57.7829437,31.9896154 57.4687386,31.9997329 L2.12965299,31.9997329 C1.9180155,32.0055608 1.71500951,31.9157554 1.57696125,31.7552342 C1.43891299,31.594713 1.3805073,31.3805513 1.41794948,31.1721707 L1.65794252,29.4591169 C1.76355582,28.9869467 2.17568137,28.6463471 2.65929281,28.6315547 L13.7237997,28.6315547 C14.2074111,28.6167623 14.6195367,28.2761626 14.72515,27.8039925 L14.9734186,25.9916312 C15.0108608,25.7832506 14.9524551,25.569089 14.8144068,25.4085677 C14.6763586,25.2480465 14.4733526,25.1582411 14.2617151,25.164069 L10.3721727,25.164069 C9.99694597,25.0814175 9.75745835,24.712975 9.83425724,24.3365068 L10.0742503,22.623453 C10.1798636,22.1512828 10.5919891,21.8106832 11.0756006,21.7958908 L12.7886544,21.7958908 C13.2722658,21.7810983 13.6843913,21.4404987 13.7900046,20.9683285 L14.0299977,19.2552748 C14.0674399,19.0468942 14.0090342,18.8327325 13.8709859,18.6722113 C13.7329377,18.51169 13.5299317,18.4218846 13.3182942,18.4277125 L11.5555867,18.4277125 C11.3541342,18.4166917 11.1671114,18.3197014 11.0420445,18.1613889 C10.9169776,18.0030764 10.8659077,17.7986835 10.9018125,17.6001503 L11.1418055,15.8870965 C11.2449947,15.4235255 11.644111,15.0852913 12.118329,15.0595343 L16.2147619,15.0595343 C16.6983734,15.0447419 17.1104989,14.7041423 17.2161122,14.2319721 L17.4561053,12.2872009 C17.4935475,12.0788203 17.4351418,11.8646586 17.2970935,11.7041374 C17.1590452,11.5436161 16.9560393,11.4538107 16.7444018,11.4596387 L8.4025746,11.4596387 C8.19093712,11.4654666 7.98793113,11.3756612 7.84988287,11.2151399 C7.71183461,11.0546187 7.65342892,10.840457 7.6908711,10.6320764 L7.93913976,8.8279908 C8.04475306,8.35582063 8.45687861,8.015221 8.94049005,8.00042858 L61.5568959,8.00042858 C61.6962462,7.99432741 61.8304533,8.05364218 61.9197486,8.16079656 C62.0090439,8.26795094 62.043185,8.41065404 62.0120551,8.54661964 Z M30.101256,15.5891741 C29.0260643,15.6045672 27.9990943,16.037913 27.2378907,16.797415 L27.1965126,16.797415 L28.2144141,11.0624088 L23.5386876,11.0624088 L20.7663542,26.7529885 L24.9620946,26.7529885 L25.1689852,25.5944014 L25.2103633,25.5944014 C25.9890896,26.5598997 27.1823858,27.0950376 28.4213047,27.0343596 C31.9053416,27.0343596 34.503887,23.980655 34.503887,20.2649007 C34.503887,17.6663553 32.9646213,15.5891741 30.101256,15.5891741 Z M42.2829718,15.5064179 C40.4849711,15.4265135 38.7335544,16.0913597 37.4414949,17.3442658 C36.1494355,18.597172 35.4310269,20.3273078 35.4555835,22.1269157 C35.4555835,25.4371645 38.0706801,27.092289 41.1823141,27.092289 C43.1603848,27.1893332 45.092978,26.4784256 46.5366416,25.1226909 L43.4001808,22.9627535 C42.8774121,23.462634 42.1786118,23.7362069 41.4554096,23.7241107 C40.7933598,23.7241107 39.6678752,23.4758421 39.6678752,22.5655236 C39.6586769,22.5162959 39.6586769,22.4657902 39.6678752,22.4165624 L47.1159352,22.4165624 C47.3099736,21.7663339 47.4130186,21.0923638 47.4221332,20.4138619 C47.4221332,17.3684329 45.4525351,15.5064179 42.2829718,15.5064179 Z M55.15984,13.3630318 L50.6496259,13.3630318 L50.2110179,15.8457184 L48.6800278,15.8457184 L48.1007342,19.1559673 L49.7558587,19.1559673 L49.0276039,23.1613684 C48.955973,23.5186286 48.9144492,23.8812699 48.9034696,24.2454749 C48.9034696,26.4881685 50.7323821,27.0343596 52.5778458,27.0343596 C53.3558708,27.0553114 54.1308414,26.9289575 54.8619176,26.6619566 L55.4246599,23.4675664 C55.1277857,23.5477442 54.8218438,23.5894635 54.5143414,23.5917008 C53.9350479,23.5917008 53.604023,23.4261883 53.604023,22.7641386 C53.604023,22.6400042 53.604023,22.3669087 53.6454011,22.2013963 L54.2081434,19.1311404 L56.2439465,19.1311404 L56.82324,15.8208915 L54.6964051,15.8208915 L55.15984,13.3630318 Z M39.957522,19.9007733 C40.257623,19.0592919 41.0586046,18.5009313 41.951947,18.5104688 C42.8622654,18.5104688 43.4084565,18.965628 43.4084565,19.6525046 C43.4178197,19.734996 43.4178197,19.8182819 43.4084565,19.9007733 L39.957522,19.9007733 Z M27.8337355,23.2689515 C27.3958664,23.3131313 26.9605783,23.1635897 26.6423074,22.859641 C26.3240365,22.5556923 26.1546251,22.1277458 26.1786111,21.6883077 C26.1308619,21.0875007 26.3296818,20.4931339 26.7293191,20.0419809 C27.1289564,19.5908278 27.6949915,19.3217451 28.2971703,19.2966529 C28.7343694,19.2553486 29.1679697,19.4058539 29.4855562,19.709149 C29.8031427,20.0124441 29.9734392,20.4386602 29.9522948,20.8772967 C30.0098587,21.4803044 29.8144842,22.0801452 29.4128262,22.5335796 C29.0111681,22.9870139 28.4392832,23.2533368 27.8337355,23.2689515 Z M7.83155667,15.7215841 L7.58328801,17.4346379 C7.5234459,17.8929306 7.14298575,18.2419766 6.68124519,18.2622001 L4.50475655,18.2622001 C4.29311907,18.268028 4.09011308,18.1782226 3.95206482,18.0177014 C3.81401656,17.8571801 3.75561087,17.6430185 3.79305304,17.4346379 L4.03304609,15.7215841 C4.12601831,15.2333741 4.54590052,14.8754417 5.042672,14.8609194 L7.11985316,14.8609194 C7.33858541,14.852771 7.54864592,14.9469083 7.68813287,15.1155902 C7.82761982,15.284272 7.8806354,15.5082733 7.83155667,15.7215841 Z M4.04132171,22.5655236 L3.80132867,24.2785774 C3.74148656,24.7368702 3.36102641,25.0859162 2.89928585,25.1061396 L0.722797213,25.1061396 C0.51115973,25.1119676 0.308153742,25.0221621 0.170105481,24.8616409 C0.0320572206,24.7011197 -0.026348471,24.486958 0.011093705,24.2785774 L0.251086748,22.5655236 C0.356700049,22.0933535 0.768825594,21.7527538 1.25243703,21.7379614 L3.3296182,21.7379614 C3.54125569,21.7321335 3.74426167,21.8219389 3.88230993,21.9824601 C4.02035819,22.1429814 4.07876389,22.357143 4.04132171,22.5655236 Z M71.4297132,15.6057254 C70.3002378,15.6239271 69.2555033,16.208481 68.6491041,17.1615423 L68.5828992,17.1615423 C68.6491041,16.8470687 68.7484116,16.0857115 68.7732385,15.8291672 L64.3044025,15.8291672 C64.2381975,16.4912169 64.0975119,17.4842916 63.9899288,17.9642777 L62.4423875,26.7529885 L67.1098384,26.7529885 L68.0449837,21.4565903 C68.2617683,20.3294775 69.2735668,19.5327302 70.4200873,19.5862996 C70.7489305,19.5785849 71.0773338,19.6147649 71.3966107,19.6938827 L72.265551,15.7464109 C71.9946595,15.6616112 71.7134385,15.614277 71.4297132,15.6057254 Z M77.785391,15.4981423 C75.9106718,15.5235002 74.1063065,16.215907 72.6958834,17.4511891 L74.7316864,19.776639 C75.4065346,19.184784 76.2674021,18.8480501 77.1647194,18.8249424 C77.9343522,18.8249424 78.4722677,19.1145892 78.4722677,19.6525046 C78.4802993,19.729535 78.4802993,19.8071917 78.4722677,19.884222 C74.7730646,19.884222 71.4710913,20.7779892 71.4710913,24.1378918 C71.4545401,26.2067974 73.1758695,27.0343596 74.7151352,27.0343596 C75.8807796,27.088523 77.008714,26.6142434 77.785391,25.7433626 L77.8681473,25.7433626 C77.8681473,26.0164581 77.8267691,26.5709248 77.8267691,26.7364372 L81.815619,26.7364372 C81.82513,26.1818499 81.8749148,25.6286861 81.9645802,25.0813128 L82.6680081,21.0759116 C82.7714729,20.5078086 82.8268399,19.9319914 82.8335206,19.3545822 C82.7921425,16.9381005 81.0873643,15.5064179 77.785391,15.5064179 L77.785391,15.4981423 Z M78.2653771,22.623453 C78.1414315,23.5155556 77.3785144,24.179576 76.4778427,24.17927 C76.0226835,24.17927 75.5261462,24.0551356 75.5261462,23.434464 C75.5261462,22.5655236 76.6930089,22.2676012 78.0584866,22.2676012 L78.3315821,22.2676012 L78.2653771,22.623453 Z M89.7105626,19.1807942 L91.7463657,19.1807942 L92.3256592,15.8705453 L90.2319268,15.8705453 L90.6705348,13.3878586 L86.1437694,13.3878586 L85.7051615,15.8705453 L84.1658957,15.8705453 L83.5866022,19.1807942 L85.2417266,19.1807942 L84.488645,23.1861953 C84.4239706,23.5357658 84.3879897,23.8900395 84.3810619,24.2454749 C84.3810619,26.4881685 86.2265257,27.0509109 88.080265,27.0509109 C88.85829,27.0718627 89.6332606,26.9455088 90.3643368,26.6785079 L90.9270791,23.4841177 C90.6302049,23.5642954 90.324263,23.6060148 90.0167606,23.608252 C89.4374671,23.608252 89.1064422,23.4427396 89.1064422,22.7806898 C89.1064422,22.6565555 89.1064422,22.3834599 89.1478203,22.2179475 L89.7105626,19.1807942 Z M93.8483737,15.8705453 L91.936705,26.7529885 L96.5876046,26.7529885 L98.5158246,15.8291672 L93.8483737,15.8705453 Z M111.111322,18.8414936 C111.111322,17.1863692 110.201003,15.6222766 107.801073,15.6222766 C106.524941,15.6454079 105.3309,16.2561708 104.565304,17.2774011 L104.482548,17.2774011 C104.523926,16.9049981 104.606683,16.2843264 104.631509,15.8622697 L100.146122,15.8622697 C100.079917,16.5243194 99.9392316,17.5173941 99.8316485,17.9973802 L98.2923828,26.7778153 L102.943282,26.7778153 L103.977735,20.9848798 C104.168075,19.9090489 104.70599,19.3297554 105.326662,19.3297554 C105.586736,19.2875282 105.851376,19.3716677 106.039312,19.556335 C106.227248,19.7410024 106.316016,20.0041253 106.278358,20.2649007 C106.273306,20.5006677 106.25118,20.735759 106.212153,20.9683285 L105.194252,26.7612641 L109.869978,26.7612641 L110.970636,20.1986957 C111.053067,19.7398464 111.094609,19.274586 111.09477,18.8083912 L111.111322,18.8414936 Z M121.191029,15.8705453 L121.00069,17.0539593 L120.901383,17.0539593 C120.201656,16.1233987 119.094265,15.5897534 117.930434,15.6222766 C114.338814,15.6222766 111.847852,18.6511543 111.847852,22.3669087 C111.847852,24.8992491 113.387118,26.7860909 116.432547,26.7860909 C117.496232,26.7771192 118.511076,26.3383484 119.246258,25.5695745 L119.312463,25.5695745 L119.20488,26.1074899 C119.014541,27.2081477 118.311113,28.143293 116.440822,28.143293 C115.216886,28.1156391 114.043026,27.6519642 113.130573,26.8357447 L110.970636,30.0384105 C112.278184,31.1556195 114.587083,31.7431886 116.639437,31.7431886 C120.727595,31.7431886 123.094423,29.9556542 123.864055,25.6606063 L125.585385,15.8374428 L121.191029,15.8705453 Z M118.038017,23.368259 C117.597103,23.4130437 117.158842,23.2613689 116.839933,22.9536218 C116.521024,22.6458746 116.353839,22.2132936 116.382893,21.7710639 C116.335222,21.1474742 116.542559,20.5312213 116.957477,20.0632686 C117.372395,19.595316 117.959396,19.3156987 118.584208,19.2883772 C119.018218,19.2421317 119.450812,19.3874904 119.768834,19.6864309 C120.086856,19.9853714 120.25867,20.4081559 120.239333,20.8441942 C120.279985,21.4702458 120.066861,22.086299 119.648033,22.5533928 C119.229206,23.0204867 118.639953,23.299278 118.01319,23.3268809 L118.038017,23.368259 Z M94.8662752,14.2650746 L98.0772166,14.2650746 C98.5155575,14.2658643 98.8784791,13.924718 98.9047789,13.4871661 L99.1282207,11.9396247 C99.1720848,11.7465068 99.1236686,11.5439717 98.9972077,11.3915701 C98.8707468,11.2391685 98.6806173,11.1542254 98.4827221,11.1617163 L95.2469538,11.1617163 C94.7991588,11.1768085 94.421356,11.4996582 94.3366354,11.9396247 L94.1131936,13.4871661 C94.0900679,13.6776496 94.1540091,13.8684127 94.2872608,14.0064807 C94.4205124,14.1445487 94.608886,14.2152201 94.8000702,14.1988696 L94.8662752,14.2650746 Z" id="path-1"></path>
    </defs>
    <g id="⚙️-UI-Kit" stroke="none" stroke-width="1" fill="none" fill-rule="evenodd">
        <g id="Icons" transform="translate(-132.000000, -548.000000)">
            <g id="Atoms-/-Images-/-Logos-/-Betrating" transform="translate(132.000000, 540.000000)">
                <mask id="mask-2" fill="white">
                    <use xlink:href="#path-1"></use>
                </mask>
                <use id="Mask" fill="#121417" fill-rule="evenodd" xlink:href="#path-1"></use>
            </g>
        </g>
    </g>
</svg>