<?xml version="1.0" encoding="UTF-8"?>
<svg width="10px" height="18px" viewBox="0 0 10 18" version="1.1" xmlns="http://www.w3.org/2000/svg" xmlns:xlink="http://www.w3.org/1999/xlink">
    <!-- Generator: Sketch 52.4 (67378) - http://www.bohemiancoding.com/sketch -->
    <title>Atoms / Icons /navigation/unfold_more_24px</title>
    <desc>Created with Sketch.</desc>
    <g id="⚙️-UI-Kit" stroke="none" stroke-width="1" fill="none" fill-rule="evenodd">
        <g id="Icons" transform="translate(-1283.000000, -187.000000)" fill="#727B88">
            <g id="Stacked-Group-3" transform="translate(132.000000, 184.000000)">
                <g id="Atoms-/-Icons-/navigation/unfold_more_24px" transform="translate(1144.000000, 0.000000)">
                    <path d="M12,5.8299928 L14.46,8.2899928 C14.85,8.6799928 15.48,8.6799928 15.87,8.2899928 C16.26,7.8999928 16.26,7.2699928 15.87,6.8799928 L12.7,3.6999928 C12.5131685,3.51274013 12.2595176,3.4075072 11.995,3.4075072 C11.7304824,3.4075072 11.4768315,3.51274013 11.29,3.6999928 L8.12,6.8799928 C7.73,7.2699928 7.73,7.8999928 8.12,8.2899928 C8.51,8.6799928 9.14,8.6799928 9.53,8.2899928 L12,5.8299928 Z M12,18.1699928 L9.54,15.7099928 C9.35316847,15.5227401 9.09951764,15.4175072 8.835,15.4175072 C8.57048236,15.4175072 8.31683153,15.5227401 8.13,15.7099928 C7.74,16.0999928 7.74,16.7299928 8.13,17.1199928 L11.3,20.2999928 C11.69,20.6899928 12.32,20.6899928 12.71,20.2999928 L15.88,17.1299928 C16.27,16.7399928 16.27,16.1099928 15.88,15.7199928 C15.6931685,15.5327401 15.4395176,15.4275072 15.175,15.4275072 C14.9104824,15.4275072 14.6568315,15.5327401 14.47,15.7199928 L12,18.1699928 Z" id="icon/navigation/unfold_more_24px"></path>
                </g>
            </g>
        </g>
    </g>
</svg>