<?xml version="1.0" encoding="UTF-8"?>
<svg width="15px" height="16px" viewBox="0 0 15 16" version="1.1" xmlns="http://www.w3.org/2000/svg" xmlns:xlink="http://www.w3.org/1999/xlink">
    <!-- Generator: Sketch 52.4 (67378) - http://www.bohemiancoding.com/sketch -->
    <title>Atoms / Icons  / 16x16 / Sports / boxing</title>
    <desc>Created with Sketch.</desc>
    <defs>
        <path d="M18.0187636,13.9388121 C18.0187636,15.4262303 16.9826424,16.6753939 15.5944242,17.0047515 C15.3608242,17.0602182 15.1175273,17.0904242 14.8671515,17.0904242 L14.1398788,17.0904242 L10.2610909,17.0904242 L8.80654545,17.0904242 L8.07927273,17.0904242 C8.0550303,17.0904242 8.03107879,17.0891152 8.00741818,17.0868364 C7.99718788,17.0857697 7.98700606,17.0837818 7.97677576,17.0823758 C7.96349091,17.0804848 7.95015758,17.0788848 7.93706667,17.0763152 C7.92528485,17.0739394 7.91369697,17.0706424 7.90201212,17.0677333 C7.89066667,17.0648727 7.87917576,17.0623515 7.86802424,17.0590061 C7.85667879,17.0555636 7.84552727,17.0512 7.83432727,17.0471758 C7.82317576,17.0432 7.8118303,17.0395152 7.80092121,17.0349576 C7.79049697,17.0306424 7.78036364,17.025503 7.77013333,17.0206545 C7.75888485,17.0153697 7.74744242,17.0102788 7.73643636,17.0044121 C7.72664242,16.9991758 7.71713939,16.9930667 7.70753939,16.9873455 C7.69677576,16.9809455 7.68586667,16.9748364 7.67549091,16.9678545 C7.66477576,16.9606788 7.65454545,16.9525818 7.64412121,16.9447273 C7.63558788,16.9383273 7.62671515,16.9323152 7.61847273,16.9255273 C7.59985455,16.910303 7.58196364,16.8941576 7.56494545,16.8771879 L4.8224,14.1345455 C4.31873939,13.6308848 4.04130909,12.9612121 4.04130909,12.2488727 C4.04135758,11.5366303 4.31869091,10.8669576 4.8224,10.363297 C5.50700606,9.67869091 6.47432727,9.44504242 7.35209697,9.66201212 L7.35209697,7.15151515 C7.35209697,5.41372121 8.76586667,4 10.5036121,4 L14.8672485,4 C16.6049939,4 18.0187636,5.41372121 18.0187636,7.15151515 L18.0187636,13.9388121 Z M10.2611879,18.5448727 L14.1399758,18.5448727 L15.5945212,18.5448727 L15.5945212,19.2721455 C15.5945212,19.6737939 15.268897,19.9994182 14.8672485,19.9994182 L9.53391515,19.9994182 C9.13226667,19.9994182 8.80664242,19.6737939 8.80664242,19.2721455 L8.80664242,18.5448727 L10.2611879,18.5448727 Z" id="path-1"></path>
    </defs>
    <g id="⚙️-UI-Kit" stroke="none" stroke-width="1" fill="none" fill-rule="evenodd">
        <g id="Icons" transform="translate(-180.000000, -252.000000)">
            <g id="Stacked-Group" transform="translate(132.000000, 248.000000)">
                <g id="Atoms-/-Icons--/-16x16-/-Sports-/-boxing" transform="translate(44.000000, 0.000000)">
                    <mask id="mask-2" fill="white">
                        <use xlink:href="#path-1"></use>
                    </mask>
                    <use id="Mask" fill="#000000" fill-rule="nonzero" transform="translate(11.030036, 11.999709) rotate(-360.000000) translate(-11.030036, -11.999709) " xlink:href="#path-1"></use>
                    <g id="Colors-/-Black-/-Lightest" mask="url(#mask-2)" fill="#727B88" fill-rule="evenodd">
                        <rect id="Rectangle-2" x="0" y="0" width="24" height="24"></rect>
                    </g>
                </g>
            </g>
        </g>
    </g>
</svg>