<?xml version="1.0" encoding="UTF-8"?>
<svg width="16px" height="16px" viewBox="0 0 16 16" version="1.1" xmlns="http://www.w3.org/2000/svg" xmlns:xlink="http://www.w3.org/1999/xlink">
    <!-- Generator: Sketch 52.4 (67378) - http://www.bohemiancoding.com/sketch -->
    <title>Atoms / Icons  / 16x16 / Sports / tennis</title>
    <desc>Created with Sketch.</desc>
    <defs>
        <path d="M14.7795363,11.9960191 C14.7599382,14.249799 15.7006463,16.3859904 17.3272875,17.9538373 C15.9162253,19.2081148 14.034809,19.9920383 11.996608,19.9920383 C9.89961281,19.9920383 7.92020611,19.1885167 6.43075157,17.7186603 C7.90060803,16.1900096 8.72372764,14.1322105 8.72372764,12.0156172 C8.72372764,9.85982775 7.88100994,7.82162679 6.41115348,6.29297608 C7.86141185,4.88191388 9.82122047,4 11.996608,4 C13.9956128,4 15.8770291,4.74472727 17.3468855,6.05779904 C15.7202444,7.58644976 14.7795363,9.74223923 14.7795363,11.9960191 Z M6.99909606,11.9960191 C7.01869415,13.6422584 6.41115348,15.2101053 5.31366066,16.3859904 C4.47094295,15.0925167 4.00058889,13.5834641 4.00058889,11.9960191 C3.9809908,10.3497799 4.45134487,8.86032536 5.29406257,7.60604785 C6.39155539,8.8015311 6.99909606,10.3497799 6.99909606,11.9960191 Z M18.4639764,7.29247847 C19.4242827,8.6643445 19.9730291,10.2713876 19.953431,11.956823 C19.953431,13.7206507 19.3850865,15.3472919 18.4247803,16.6603636 C17.1705028,15.4452823 16.4453736,13.7990431 16.4649717,11.9960191 C16.4649717,10.2125933 17.2096989,8.52715789 18.4639764,7.29247847 Z" id="path-1"></path>
    </defs>
    <g id="⚙️-UI-Kit" stroke="none" stroke-width="1" fill="none" fill-rule="evenodd">
        <g id="Icons" transform="translate(-312.000000, -252.000000)">
            <g id="Stacked-Group" transform="translate(132.000000, 248.000000)">
                <g id="Atoms-/-Icons--/-16x16-/-Sports-/-tennis" transform="translate(176.000000, 0.000000)">
                    <mask id="mask-2" fill="white">
                        <use xlink:href="#path-1"></use>
                    </mask>
                    <use id="Mask" fill="#8A94A6" fill-rule="nonzero" xlink:href="#path-1"></use>
                    <g id="Colors-/-Black-/-Lightest" mask="url(#mask-2)" fill="#727B88" fill-rule="evenodd">
                        <rect id="Rectangle-2" x="0" y="0" width="24" height="24"></rect>
                    </g>
                </g>
            </g>
        </g>
    </g>
</svg>