<svg xmlns="http://www.w3.org/2000/svg" style="display: none!important; visibility: hidden!important">

    <symbol id="crown" viewBox="0 0 16 11">
        <g stroke="none" stroke-width="1" fill="inherit" fill-rule="evenodd">
            <g id="Icons" transform="translate(-1192.000000, -191.000000)" fill="inherit">
                <g id="Stacked-Group-3" transform="translate(132.000000, 184.000000)">
                    <g id="Atoms-/-Icons-/-crown_24px" transform="translate(1056.000000, 0.000000)">
                        <path d="M19.3704673,10.3190977 C19.3729196,10.3622653 19.3696897,10.4061954 19.3586243,10.4498323 L18.3717084,14.3208422 C18.3219439,14.515859 18.1437009,14.6529866 17.9387813,14.6540423 L12.017286,14.6833681 C12.0165084,14.6833681 12.0157907,14.6833681 12.0150131,14.6833681 L6.09345794,14.6833681 C5.88746168,14.6833681 5.70796262,14.5457713 5.65819813,14.3497574 L4.67128224,10.4640846 C4.65991776,10.4192748 4.65662804,10.374113 4.65949907,10.329831 C4.27771215,10.2118825 4,9.86155608 4,9.44870701 C4,8.9393173 4.42257944,8.52494329 4.94205607,8.52494329 C5.46153271,8.52494329 5.88411215,8.9393173 5.88411215,9.44870701 C5.88411215,9.73557231 5.75007103,9.99223199 5.54018692,10.161794 L6.77580561,11.3825697 C7.08808972,11.6911361 7.52143551,11.8680295 7.96477009,11.8680295 C8.48897196,11.8680295 8.98877009,11.6239213 9.30350654,11.2149433 L11.3341607,8.57655676 C11.1635738,8.40939951 11.0579439,8.17842925 11.0579439,7.92376372 C11.0579439,7.41437401 11.4805234,7 12,7 C12.5194766,7 12.9420561,7.41437401 12.9420561,7.92376372 C12.9420561,8.17080454 12.8420486,8.39502985 12.6803738,8.56095541 C12.6809121,8.56165923 12.6815701,8.56224575 12.6821084,8.56300822 L14.6980486,11.2086675 C15.0126654,11.6215752 15.5142579,11.8680882 16.0399551,11.8680882 C16.487357,11.8680882 16.9080822,11.6972359 17.2244336,11.3869686 L18.467828,10.1677178 C18.2535178,9.99821446 18.1158879,9.73909141 18.1158879,9.44870701 C18.1158879,8.9393173 18.5384673,8.52494329 19.0579439,8.52494329 C19.5774206,8.52494329 20,8.9393173 20,9.44870701 C20,9.85052957 19.7365234,10.1922928 19.3704673,10.3190977 Z M18.2754093,16.0616822 C18.2754093,15.818747 18.074557,15.6217948 17.8268112,15.6217948 L6.2230729,15.6217948 C5.9753271,15.6217948 5.77447477,15.818747 5.77447477,16.0616822 L5.77447477,17.1174122 C5.77447477,17.3603474 5.9753271,17.5572997 6.2230729,17.5572997 L17.8268112,17.5572997 C18.074557,17.5572997 18.2754093,17.3603474 18.2754093,17.1174122 L18.2754093,16.0616822 Z" id="Mask"></path>
                    </g>
                </g>
            </g>
        </g>
    </symbol>

    <symbol id="expand_more" viewBox="0 0 12 8">
        <g stroke="none" stroke-width="1" fill="inherit" fill-rule="evenodd">
            <g id="Icons" transform="translate(-490.000000, -192.000000)">
                <g id="Stacked-Group-3" transform="translate(132.000000, 184.000000)">
                    <g id="Atoms-/-Icons-/-navigation/expand_more_24px" transform="translate(352.000000, 0.000000)">
                        <g id="Colors-/-Black-/-Lightest" class="expand_more_24px" mask="url(#mask-2)" fill="inherit" fill-rule="evenodd">
                            <path d="M15.875,8.9999928 L11.995,12.8799928 L8.115,8.9999928 C7.92816847,8.81274013 7.67451764,8.7075072 7.41,8.7075072 C7.14548236,8.7075072 6.89183153,8.81274013 6.705,8.9999928 C6.315,9.3899928 6.315,10.0199928 6.705,10.4099928 L11.295,14.9999928 C11.685,15.3899928 12.315,15.3899928 12.705,14.9999928 L17.295,10.4099928 C17.685,10.0199928 17.685,9.3899928 17.295,8.9999928 C16.905,8.6199928 16.265,8.6099928 15.875,8.9999928 Z" id="path-1"></path>
                        </g>
                    </g>
                </g>
            </g>
        </g>
    </symbol>

    <symbol id="arrow_forward" viewBox="0 0 16 16">
        <g stroke="none" stroke-width="1" fill="inherit" fill-rule="evenodd">
            <g id="Icons" transform="translate(-224.000000, -188.000000)">
                <g id="Stacked-Group-3" transform="translate(132.000000, 184.000000)">
                    <g id="Atoms-/-Icons-/-navigation/arrow_forward_24px" transform="translate(88.000000, 0.000000)">
                        <g id="Colors-/-Black-/-Lightest" mask="url(#mask-2)" fill="inherit" fill-rule="evenodd">
                            <path d="M5.20875,12.9999928 L16.37875,12.9999928 L11.49875,17.8799928 C11.10875,18.2699928 11.10875,18.9099928 11.49875,19.2999928 C11.88875,19.6899928 12.51875,19.6899928 12.90875,19.2999928 L19.49875,12.7099928 C19.88875,12.3199928 19.88875,11.6899928 19.49875,11.2999928 L12.91875,4.6999928 C12.7319185,4.51274013 12.4782676,4.4075072 12.21375,4.4075072 C11.9492324,4.4075072 11.6955815,4.51274013 11.50875,4.6999928 C11.11875,5.0899928 11.11875,5.7199928 11.50875,6.1099928 L16.37875,10.9999928 L5.20875,10.9999928 C4.65875,10.9999928 4.20875,11.4499928 4.20875,11.9999928 C4.20875,12.5499928 4.65875,12.9999928 5.20875,12.9999928 Z" id="path-1"></path>
                        </g>
                    </g>
                </g>
            </g>
        </g>
    </symbol>

    <symbol id="facebook" viewBox="0 0 8 15">
        <g stroke="none" stroke-width="1" fill="inherit" fill-rule="evenodd">
            <g id="Icons" transform="translate(-184.000000, -317.000000)">
                <g id="Stacked-Group-2" transform="translate(132.000000, 312.000000)">
                    <g id="Atoms-/-Icons-/-24x24/Socials/facebook" transform="translate(44.000000, 0.000000)">]
                        <g id="Colors-/-Black-/-Lightest" mask="url(#mask-2)" fill="inherit" fill-rule="evenodd">
                            <path d="M9.56834765,7.77889262 C9.56834765,7.68913027 9.58081464,7.49526854 9.60574863,7.19855412 C9.63255266,6.90121635 9.74475559,6.59016489 9.94609752,6.26352968 C10.1455694,5.93814118 10.4690879,5.64579021 10.9191463,5.38710012 C11.3673347,5.12965672 12.0149949,5 12.860257,5 L15.2414526,5 L15.2414526,7.59500448 L13.4979437,7.59500448 C13.3252758,7.59500448 13.1644516,7.65983284 13.0192112,7.78761951 C12.8752174,7.91540618 12.8010388,8.03695936 12.8010388,8.14978564 L12.8010388,9.76426116 L15.2408292,9.76426116 C15.2152719,10.0802994 15.1872211,10.3876108 15.154807,10.6843252 L15.0581878,11.468499 C15.0195401,11.7334226 14.9802691,11.9790224 14.9416214,12.2052983 L12.783585,12.2052983 L12.783585,19.3999996 L9.56834765,19.3999996 L9.56834765,12.2046749 L8,12.2046749 L8,9.76426116 L9.56834765,9.76426116 L9.56834765,7.77889262 Z" id="path-1"></path>
                        </g>
                    </g>
                </g>
            </g>
        </g>
    </symbol>

    <symbol id="ok" viewBox="0 0 10 16">
        <g stroke="none" stroke-width="1" fill="inherit" fill-rule="evenodd">
            <g id="Icons" transform="translate(-227.000000, -316.000000)">
                <g id="Stacked-Group-2" transform="translate(132.000000, 312.000000)">
                    <g id="Atoms-/-Icons-/-24x24/Socials/ok" transform="translate(88.000000, 0.000000)">
                        <g id="Colors-/-Black-/-Lightest" mask="url(#mask-2)" fill="inherit" fill-rule="evenodd">
                            <path d="M11.0161558,15.2697692 C9.77580255,15.1404052 8.65744032,14.8349251 7.69994529,14.0860547 C7.58113816,13.9928858 7.45847691,13.9030683 7.35005912,13.7990073 C6.93096652,13.3965041 6.88873888,12.935519 7.22035993,12.4604581 C7.50405595,12.0539332 7.98028992,11.9451803 8.47529172,12.1786053 C8.57114176,12.2238492 8.66246742,12.2803203 8.74993896,12.3409806 C10.534392,13.5670904 12.9857736,13.6009395 14.7769294,12.3961112 C14.9543861,12.2600443 15.1440753,12.149113 15.3639272,12.0924743 C15.7913983,11.982716 16.1900473,12.1397291 16.4194507,12.5137453 C16.6815302,12.9408813 16.6781788,13.3577955 16.3552714,13.6894165 C15.8599344,14.1978239 15.264223,14.5656401 14.6023215,14.8223573 C13.9764475,15.0649987 13.2909186,15.1871572 12.6124277,15.2682611 C12.7148129,15.3796952 12.7630731,15.4344906 12.8270848,15.4988374 C13.7483847,16.4244942 14.6737063,17.3462968 15.59199,18.2748022 C15.9048432,18.5911744 15.9701955,18.9834558 15.7979335,19.3514395 C15.6095848,19.7536075 15.1879787,20.0182006 14.7745835,19.9898812 C14.5126715,19.9717837 14.3084037,19.8414142 14.1269254,19.6585953 C13.4316774,18.9589905 12.723359,18.2722887 12.0421869,17.5594458 C11.8439516,17.3521617 11.7486043,17.3913731 11.5736612,17.5713433 C10.874224,18.2913916 10.163392,19.0003803 9.44837076,19.7053474 C9.12730662,20.0218871 8.745247,20.0788609 8.37290645,19.8980529 C7.97710609,19.7061852 7.72524836,19.3021739 7.74468648,18.8961518 C7.75809209,18.6215046 7.89315351,18.4117069 8.08166977,18.2235258 C8.99341819,17.3131179 9.90265305,16.4003641 10.8122231,15.4884481 C10.8723807,15.4277878 10.9285166,15.3634409 11.0161558,15.2697692 Z M11.7717289,12.0985068 C9.55896696,12.0909662 7.74451891,10.2565773 7.7574218,8.04029639 C7.77015713,5.79955024 9.58577816,3.99381583 11.8203242,4.00001592 C14.0593947,4.00604844 15.856583,5.8377562 15.8453558,8.10179458 C15.8339611,10.3135511 14.0069453,12.1062151 11.7717289,12.0985068 Z M13.7827366,8.04565863 C13.7788825,6.94522638 12.9024913,6.06917038 11.8042375,6.06816496 C10.6967673,6.06699197 9.81250039,6.95896712 9.82104646,8.06945357 C9.82925739,9.16569656 10.7131892,10.0355525 11.8144593,10.0315308 C12.912378,10.0276767 13.7864231,9.1459233 13.7827366,8.04565863 Z" id="path-1"></path>
                        </g>
                    </g>
                </g>
            </g>
        </g>
    </symbol>

    <symbol id="twitter" viewBox="0 0 16 13">
        <g stroke="none" stroke-width="1" fill="inherit" fill-rule="evenodd">
            <g id="Icons" transform="translate(-136.000000, -317.000000)">
                <g id="Stacked-Group-2" transform="translate(132.000000, 312.000000)">
                    <g id="Atoms-/-Icons-/-24x24/Socials/Dark/twitter">
                        <g id="Colors-/-Black-/-Lightest" mask="url(#mask-2)" fill="inherit" fill-rule="evenodd">
                            <path d="M9.03168,18.0009402 C15.06944,18.0009402 18.37184,12.9987002 18.37184,8.66078018 C18.37184,8.51870018 18.37184,8.37726018 18.36224,8.23646018 C19.0046921,7.77176313 19.5592675,7.19638299 20,6.53726018 C19.4008826,6.80273332 18.7653307,6.97683052 18.11456,7.05374018 C18.7998362,6.6434887 19.312719,5.99823425 19.55776,5.23806018 C18.9133808,5.62043158 18.2084135,5.88990787 17.47328,6.03486018 C16.455733,4.95287252 14.8388604,4.68805223 13.5293115,5.38889533 C12.2197627,6.08973843 11.543216,7.58194865 11.87904,9.02878018 C9.23961327,8.89645988 6.7804645,7.64978707 5.1136,5.59902018 C4.24231856,7.09895281 4.68735225,9.01781025 6.12992,9.98110018 C5.60751437,9.96561701 5.0964988,9.82469261 4.64,9.57022018 L4.64,9.61182018 C4.64042761,11.1744397 5.74192095,12.5203227 7.2736,12.8297402 C6.79031654,12.9615418 6.28325158,12.9808085 5.79136,12.8860602 C6.22140667,14.2232908 7.45380772,15.1393619 8.85824,15.1657402 C7.69583042,16.0792966 6.25987809,16.5752299 4.78144,16.5737402 C4.52025828,16.5732388 4.2593306,16.557425 4,16.5263802 C5.50120701,17.4897572 7.24794458,18.000759 9.03168,17.9983802" id="path-1"></path>
                        </g>
                    </g>
                </g>
            </g>
        </g>
    </symbol>

    <symbol id="vk" viewBox="0 0 18 11">
        <g stroke="none" stroke-width="1" fill="inherit" fill-rule="evenodd">
            <g id="Icons" transform="translate(-267.000000, -319.000000)">
                <g id="Stacked-Group-2" transform="translate(132.000000, 312.000000)">
                    <g id="Atoms-/-Icons-/-24x24/Socials/vk" transform="translate(132.000000, 0.000000)">
                        <g id="Colors-/-Black-/-Lightest" mask="url(#mask-2)" fill="inherit" fill-rule="evenodd">
                            <path d="M19.0442834,14.0891328 C20.4900934,15.4323369 20.7885832,16.0759556 20.8352222,16.1599058 C21.4322018,17.1486533 20.1822758,17.2232757 20.1822758,17.2232757 L17.7757017,17.260587 C17.7757017,17.260587 17.2533446,17.3631928 16.5817425,16.8968025 C15.6769453,16.2811673 14.8094593,14.6674568 14.1658407,14.8819963 C13.5035664,15.0965359 13.522222,16.5423459 13.522222,16.5423459 C13.522222,16.5423459 13.522222,16.7475576 13.3729771,16.9061303 C13.2050766,17.0833586 12.8786034,17.018064 12.8786034,17.018064 L11.8059057,17.018064 C11.8059057,17.018064 9.42731507,17.260587 7.34721426,15.0872081 C5.06190171,12.7179453 3.04709554,8.05404211 3.04709554,8.05404211 C3.04709554,8.05404211 2.93516187,7.77420793 3.05642335,7.61563522 C3.19634044,7.46639032 3.58810831,7.46639032 3.58810831,7.46639032 L6.16258285,7.46639032 C6.16258285,7.46639032 6.41443363,7.46639032 6.57300633,7.61563522 C6.71292343,7.71824109 6.79687369,7.93278063 6.79687369,7.93278063 C6.79687369,7.93278063 7.20729716,8.96816713 7.76696554,9.91960338 C8.83966327,11.7758368 9.33403701,12.1769325 9.67916584,11.9810486 C10.2388342,11.6918866 10.0802615,9.359935 10.0802615,9.359935 C10.0802615,9.359935 10.0895893,8.51110462 9.80975513,8.13799237 C9.59521558,7.84883038 9.1847921,7.75555231 9.00756378,7.7368967 C8.85831888,7.71824109 9.10084185,7.38244006 9.40865946,7.22386735 C9.87504977,7 10.6865689,7 11.6566608,7 C12.4122131,7 12.6267526,7.05596684 12.9159146,7.12126148 C13.811384,7.33580103 13.5035664,8.16597579 13.5035664,10.1434707 C13.5035664,10.7870894 13.4102884,11.6639032 13.8486953,11.9717208 C14.0445792,12.1023101 14.5296251,11.9903764 15.74224,9.9475868 C16.3019083,8.97749494 16.7309874,7.83017476 16.7309874,7.83017476 C16.7309874,7.83017476 16.8242655,7.63429083 16.9641826,7.54101277 C17.1134275,7.46639032 17.3186392,7.46639032 17.3186392,7.46639032 L20.0237031,7.46639032 C20.0237031,7.46639032 20.84455,7.37311225 20.9751393,7.7368967 C21.1150564,8.11933676 20.6673217,9.02413397 19.5573127,10.4885996 C17.7477183,12.9138292 17.5425066,12.6899619 19.0442834,14.0891328 L19.0442834,14.0891328 Z" id="path-1"></path>
                        </g>
                    </g>
                </g>
            </g>
        </g>
    </symbol>

</svg>
