<svg xmlns="http://www.w3.org/2000/svg" style="display: none!important; visibility: hidden!important">

    <symbol id="crown" viewBox="0 0 16 11">
        <g stroke="none" stroke-width="1" fill="inherit" fill-rule="evenodd">
            <g id="Icons" transform="translate(-1192.000000, -191.000000)" fill="inherit">
                <g id="Stacked-Group-3" transform="translate(132.000000, 184.000000)">
                    <g id="Atoms-/-Icons-/-crown_24px" transform="translate(1056.000000, 0.000000)">
                        <path d="M19.3704673,10.3190977 C19.3729196,10.3622653 19.3696897,10.4061954 19.3586243,10.4498323 L18.3717084,14.3208422 C18.3219439,14.515859 18.1437009,14.6529866 17.9387813,14.6540423 L12.017286,14.6833681 C12.0165084,14.6833681 12.0157907,14.6833681 12.0150131,14.6833681 L6.09345794,14.6833681 C5.88746168,14.6833681 5.70796262,14.5457713 5.65819813,14.3497574 L4.67128224,10.4640846 C4.65991776,10.4192748 4.65662804,10.374113 4.65949907,10.329831 C4.27771215,10.2118825 4,9.86155608 4,9.44870701 C4,8.9393173 4.42257944,8.52494329 4.94205607,8.52494329 C5.46153271,8.52494329 5.88411215,8.9393173 5.88411215,9.44870701 C5.88411215,9.73557231 5.75007103,9.99223199 5.54018692,10.161794 L6.77580561,11.3825697 C7.08808972,11.6911361 7.52143551,11.8680295 7.96477009,11.8680295 C8.48897196,11.8680295 8.98877009,11.6239213 9.30350654,11.2149433 L11.3341607,8.57655676 C11.1635738,8.40939951 11.0579439,8.17842925 11.0579439,7.92376372 C11.0579439,7.41437401 11.4805234,7 12,7 C12.5194766,7 12.9420561,7.41437401 12.9420561,7.92376372 C12.9420561,8.17080454 12.8420486,8.39502985 12.6803738,8.56095541 C12.6809121,8.56165923 12.6815701,8.56224575 12.6821084,8.56300822 L14.6980486,11.2086675 C15.0126654,11.6215752 15.5142579,11.8680882 16.0399551,11.8680882 C16.487357,11.8680882 16.9080822,11.6972359 17.2244336,11.3869686 L18.467828,10.1677178 C18.2535178,9.99821446 18.1158879,9.73909141 18.1158879,9.44870701 C18.1158879,8.9393173 18.5384673,8.52494329 19.0579439,8.52494329 C19.5774206,8.52494329 20,8.9393173 20,9.44870701 C20,9.85052957 19.7365234,10.1922928 19.3704673,10.3190977 Z M18.2754093,16.0616822 C18.2754093,15.818747 18.074557,15.6217948 17.8268112,15.6217948 L6.2230729,15.6217948 C5.9753271,15.6217948 5.77447477,15.818747 5.77447477,16.0616822 L5.77447477,17.1174122 C5.77447477,17.3603474 5.9753271,17.5572997 6.2230729,17.5572997 L17.8268112,17.5572997 C18.074557,17.5572997 18.2754093,17.3603474 18.2754093,17.1174122 L18.2754093,16.0616822 Z"
                              id="Mask"></path>
                    </g>
                </g>
            </g>
        </g>
    </symbol>

    <symbol id="expand_more" viewBox="0 0 12 8">
        <g stroke="none" stroke-width="1" fill="inherit" fill-rule="evenodd">
            <g id="Icons" transform="translate(-490.000000, -192.000000)">
                <g id="Stacked-Group-3" transform="translate(132.000000, 184.000000)">
                    <g id="Atoms-/-Icons-/-navigation/expand_more_24px" transform="translate(352.000000, 0.000000)">
                        <g id="Colors-/-Black-/-Lightest" class="expand_more_24px" mask="url(#mask-2)" fill="inherit"
                           fill-rule="evenodd">
                            <path d="M15.875,8.9999928 L11.995,12.8799928 L8.115,8.9999928 C7.92816847,8.81274013 7.67451764,8.7075072 7.41,8.7075072 C7.14548236,8.7075072 6.89183153,8.81274013 6.705,8.9999928 C6.315,9.3899928 6.315,10.0199928 6.705,10.4099928 L11.295,14.9999928 C11.685,15.3899928 12.315,15.3899928 12.705,14.9999928 L17.295,10.4099928 C17.685,10.0199928 17.685,9.3899928 17.295,8.9999928 C16.905,8.6199928 16.265,8.6099928 15.875,8.9999928 Z"
                                  id="path-1"></path>
                        </g>
                    </g>
                </g>
            </g>
        </g>
    </symbol>

    <symbol id="expand_less" viewBox="0 0 12 8">
        <g stroke="none" stroke-width="1" fill="inherit" fill-rule="evenodd">
            <g id="Icons" transform="translate(-446.000000, -192.000000)">
                <g id="Stacked-Group-3" transform="translate(132.000000, 184.000000)">
                    <g id="Atoms-/-Icons-/-navigation/expand_less_24px" transform="translate(308.000000, 0.000000)">
                        <g id="Colors-/-Black-/-Lightest" mask="url(#mask-2)" fill="inherit" fill-rule="evenodd">
                            <path d="M11.295,9 L6.705,13.59 C6.315,13.98 6.315,14.61 6.705,15 C7.095,15.39 7.725,15.39 8.115,15 L12.005,11.12 L15.885,15 C16.275,15.39 16.905,15.39 17.295,15 C17.685,14.61 17.685,13.98 17.295,13.59 L12.705,9 C12.325,8.61 11.685,8.61 11.295,9 Z"
                                  id="path-1"></path>
                        </g>
                    </g>
                </g>
            </g>
        </g>
    </symbol>

    <symbol id="arrow_forward" viewBox="0 0 16 16">
        <g stroke="none" stroke-width="1" fill="inherit" fill-rule="evenodd">
            <g id="Icons" transform="translate(-224.000000, -188.000000)">
                <g id="Stacked-Group-3" transform="translate(132.000000, 184.000000)">
                    <g id="Atoms-/-Icons-/-navigation/arrow_forward_24px" transform="translate(88.000000, 0.000000)">
                        <g id="Colors-/-Black-/-Lightest" mask="url(#mask-2)" fill="inherit" fill-rule="evenodd">
                            <path d="M5.20875,12.9999928 L16.37875,12.9999928 L11.49875,17.8799928 C11.10875,18.2699928 11.10875,18.9099928 11.49875,19.2999928 C11.88875,19.6899928 12.51875,19.6899928 12.90875,19.2999928 L19.49875,12.7099928 C19.88875,12.3199928 19.88875,11.6899928 19.49875,11.2999928 L12.91875,4.6999928 C12.7319185,4.51274013 12.4782676,4.4075072 12.21375,4.4075072 C11.9492324,4.4075072 11.6955815,4.51274013 11.50875,4.6999928 C11.11875,5.0899928 11.11875,5.7199928 11.50875,6.1099928 L16.37875,10.9999928 L5.20875,10.9999928 C4.65875,10.9999928 4.20875,11.4499928 4.20875,11.9999928 C4.20875,12.5499928 4.65875,12.9999928 5.20875,12.9999928 Z"
                                  id="path-1"></path>
                        </g>
                    </g>
                </g>
            </g>
        </g>
    </symbol>

    <symbol id="arrow_left" viewBox="0 0 24 24">
        <g>
            <g transform="translate(-555 -220)">
                <g clip-path="url(#41v6b)">
                    <g>
                        <path id="41v6a"
                              d="M569.003 226.702a.996.996 0 0 0-1.41 0l-4.59 4.59a.996.996 0 0 0 0 1.41l4.59 4.59a.996.996 0 1 0 1.41-1.41l-3.88-3.89 3.88-3.88c.39-.39.38-1.03 0-1.41z"/>
                    </g>
                </g>
            </g>
        </g>
    </symbol>

    <symbol id="arrow_right" viewBox="0 0 24 24">
        <g>
            <g transform="matrix(-1 0 0 1 610 -220)">
                <g clip-path="url(#1qvbb)">
                    <g>
                        <path id="1qvba"
                              d="M600.003 226.702a.996.996 0 0 0-1.41 0l-4.59 4.59a.996.996 0 0 0 0 1.41l4.59 4.59a.996.996 0 1 0 1.41-1.41l-3.88-3.89 3.88-3.88c.39-.39.38-1.03 0-1.41z"/>
                    </g>
                </g>
            </g>
        </g>
    </symbol>


    <symbol id="facebook" viewBox="0 0 8 15">
        <g stroke="none" stroke-width="1" fill="inherit" fill-rule="evenodd">
            <g id="Icons" transform="translate(-184.000000, -317.000000)">
                <g id="Stacked-Group-2" transform="translate(132.000000, 312.000000)">
                    <g id="Atoms-/-Icons-/-24x24/Socials/facebook" transform="translate(44.000000, 0.000000)">]
                        <g id="Colors-/-Black-/-Lightest" mask="url(#mask-2)" fill="inherit" fill-rule="evenodd">
                            <path d="M9.56834765,7.77889262 C9.56834765,7.68913027 9.58081464,7.49526854 9.60574863,7.19855412 C9.63255266,6.90121635 9.74475559,6.59016489 9.94609752,6.26352968 C10.1455694,5.93814118 10.4690879,5.64579021 10.9191463,5.38710012 C11.3673347,5.12965672 12.0149949,5 12.860257,5 L15.2414526,5 L15.2414526,7.59500448 L13.4979437,7.59500448 C13.3252758,7.59500448 13.1644516,7.65983284 13.0192112,7.78761951 C12.8752174,7.91540618 12.8010388,8.03695936 12.8010388,8.14978564 L12.8010388,9.76426116 L15.2408292,9.76426116 C15.2152719,10.0802994 15.1872211,10.3876108 15.154807,10.6843252 L15.0581878,11.468499 C15.0195401,11.7334226 14.9802691,11.9790224 14.9416214,12.2052983 L12.783585,12.2052983 L12.783585,19.3999996 L9.56834765,19.3999996 L9.56834765,12.2046749 L8,12.2046749 L8,9.76426116 L9.56834765,9.76426116 L9.56834765,7.77889262 Z"
                                  id="path-1"></path>
                        </g>
                    </g>
                </g>
            </g>
        </g>
    </symbol>

    <symbol id="ok" viewBox="0 0 10 16">
        <g stroke="none" stroke-width="1" fill="inherit" fill-rule="evenodd">
            <g id="Icons" transform="translate(-227.000000, -316.000000)">
                <g id="Stacked-Group-2" transform="translate(132.000000, 312.000000)">
                    <g id="Atoms-/-Icons-/-24x24/Socials/ok" transform="translate(88.000000, 0.000000)">
                        <g id="Colors-/-Black-/-Lightest" mask="url(#mask-2)" fill="inherit" fill-rule="evenodd">
                            <path d="M11.0161558,15.2697692 C9.77580255,15.1404052 8.65744032,14.8349251 7.69994529,14.0860547 C7.58113816,13.9928858 7.45847691,13.9030683 7.35005912,13.7990073 C6.93096652,13.3965041 6.88873888,12.935519 7.22035993,12.4604581 C7.50405595,12.0539332 7.98028992,11.9451803 8.47529172,12.1786053 C8.57114176,12.2238492 8.66246742,12.2803203 8.74993896,12.3409806 C10.534392,13.5670904 12.9857736,13.6009395 14.7769294,12.3961112 C14.9543861,12.2600443 15.1440753,12.149113 15.3639272,12.0924743 C15.7913983,11.982716 16.1900473,12.1397291 16.4194507,12.5137453 C16.6815302,12.9408813 16.6781788,13.3577955 16.3552714,13.6894165 C15.8599344,14.1978239 15.264223,14.5656401 14.6023215,14.8223573 C13.9764475,15.0649987 13.2909186,15.1871572 12.6124277,15.2682611 C12.7148129,15.3796952 12.7630731,15.4344906 12.8270848,15.4988374 C13.7483847,16.4244942 14.6737063,17.3462968 15.59199,18.2748022 C15.9048432,18.5911744 15.9701955,18.9834558 15.7979335,19.3514395 C15.6095848,19.7536075 15.1879787,20.0182006 14.7745835,19.9898812 C14.5126715,19.9717837 14.3084037,19.8414142 14.1269254,19.6585953 C13.4316774,18.9589905 12.723359,18.2722887 12.0421869,17.5594458 C11.8439516,17.3521617 11.7486043,17.3913731 11.5736612,17.5713433 C10.874224,18.2913916 10.163392,19.0003803 9.44837076,19.7053474 C9.12730662,20.0218871 8.745247,20.0788609 8.37290645,19.8980529 C7.97710609,19.7061852 7.72524836,19.3021739 7.74468648,18.8961518 C7.75809209,18.6215046 7.89315351,18.4117069 8.08166977,18.2235258 C8.99341819,17.3131179 9.90265305,16.4003641 10.8122231,15.4884481 C10.8723807,15.4277878 10.9285166,15.3634409 11.0161558,15.2697692 Z M11.7717289,12.0985068 C9.55896696,12.0909662 7.74451891,10.2565773 7.7574218,8.04029639 C7.77015713,5.79955024 9.58577816,3.99381583 11.8203242,4.00001592 C14.0593947,4.00604844 15.856583,5.8377562 15.8453558,8.10179458 C15.8339611,10.3135511 14.0069453,12.1062151 11.7717289,12.0985068 Z M13.7827366,8.04565863 C13.7788825,6.94522638 12.9024913,6.06917038 11.8042375,6.06816496 C10.6967673,6.06699197 9.81250039,6.95896712 9.82104646,8.06945357 C9.82925739,9.16569656 10.7131892,10.0355525 11.8144593,10.0315308 C12.912378,10.0276767 13.7864231,9.1459233 13.7827366,8.04565863 Z"
                                  id="path-1"></path>
                        </g>
                    </g>
                </g>
            </g>
        </g>
    </symbol>

    <symbol id="twitter" viewBox="0 0 16 13">
        <g stroke="none" stroke-width="1" fill="inherit" fill-rule="evenodd">
            <g id="Icons" transform="translate(-136.000000, -317.000000)">
                <g id="Stacked-Group-2" transform="translate(132.000000, 312.000000)">
                    <g id="Atoms-/-Icons-/-24x24/Socials/Dark/twitter">
                        <g id="Colors-/-Black-/-Lightest" mask="url(#mask-2)" fill="inherit" fill-rule="evenodd">
                            <path d="M9.03168,18.0009402 C15.06944,18.0009402 18.37184,12.9987002 18.37184,8.66078018 C18.37184,8.51870018 18.37184,8.37726018 18.36224,8.23646018 C19.0046921,7.77176313 19.5592675,7.19638299 20,6.53726018 C19.4008826,6.80273332 18.7653307,6.97683052 18.11456,7.05374018 C18.7998362,6.6434887 19.312719,5.99823425 19.55776,5.23806018 C18.9133808,5.62043158 18.2084135,5.88990787 17.47328,6.03486018 C16.455733,4.95287252 14.8388604,4.68805223 13.5293115,5.38889533 C12.2197627,6.08973843 11.543216,7.58194865 11.87904,9.02878018 C9.23961327,8.89645988 6.7804645,7.64978707 5.1136,5.59902018 C4.24231856,7.09895281 4.68735225,9.01781025 6.12992,9.98110018 C5.60751437,9.96561701 5.0964988,9.82469261 4.64,9.57022018 L4.64,9.61182018 C4.64042761,11.1744397 5.74192095,12.5203227 7.2736,12.8297402 C6.79031654,12.9615418 6.28325158,12.9808085 5.79136,12.8860602 C6.22140667,14.2232908 7.45380772,15.1393619 8.85824,15.1657402 C7.69583042,16.0792966 6.25987809,16.5752299 4.78144,16.5737402 C4.52025828,16.5732388 4.2593306,16.557425 4,16.5263802 C5.50120701,17.4897572 7.24794458,18.000759 9.03168,17.9983802"
                                  id="path-1"></path>
                        </g>
                    </g>
                </g>
            </g>
        </g>
    </symbol>

    <symbol id="vk" viewBox="0 0 18 11">
        <g stroke="none" stroke-width="1" fill="inherit" fill-rule="evenodd">
            <g id="Icons" transform="translate(-267.000000, -319.000000)">
                <g id="Stacked-Group-2" transform="translate(132.000000, 312.000000)">
                    <g id="Atoms-/-Icons-/-24x24/Socials/vk" transform="translate(132.000000, 0.000000)">
                        <g id="Colors-/-Black-/-Lightest" mask="url(#mask-2)" fill="inherit" fill-rule="evenodd">
                            <path d="M19.0442834,14.0891328 C20.4900934,15.4323369 20.7885832,16.0759556 20.8352222,16.1599058 C21.4322018,17.1486533 20.1822758,17.2232757 20.1822758,17.2232757 L17.7757017,17.260587 C17.7757017,17.260587 17.2533446,17.3631928 16.5817425,16.8968025 C15.6769453,16.2811673 14.8094593,14.6674568 14.1658407,14.8819963 C13.5035664,15.0965359 13.522222,16.5423459 13.522222,16.5423459 C13.522222,16.5423459 13.522222,16.7475576 13.3729771,16.9061303 C13.2050766,17.0833586 12.8786034,17.018064 12.8786034,17.018064 L11.8059057,17.018064 C11.8059057,17.018064 9.42731507,17.260587 7.34721426,15.0872081 C5.06190171,12.7179453 3.04709554,8.05404211 3.04709554,8.05404211 C3.04709554,8.05404211 2.93516187,7.77420793 3.05642335,7.61563522 C3.19634044,7.46639032 3.58810831,7.46639032 3.58810831,7.46639032 L6.16258285,7.46639032 C6.16258285,7.46639032 6.41443363,7.46639032 6.57300633,7.61563522 C6.71292343,7.71824109 6.79687369,7.93278063 6.79687369,7.93278063 C6.79687369,7.93278063 7.20729716,8.96816713 7.76696554,9.91960338 C8.83966327,11.7758368 9.33403701,12.1769325 9.67916584,11.9810486 C10.2388342,11.6918866 10.0802615,9.359935 10.0802615,9.359935 C10.0802615,9.359935 10.0895893,8.51110462 9.80975513,8.13799237 C9.59521558,7.84883038 9.1847921,7.75555231 9.00756378,7.7368967 C8.85831888,7.71824109 9.10084185,7.38244006 9.40865946,7.22386735 C9.87504977,7 10.6865689,7 11.6566608,7 C12.4122131,7 12.6267526,7.05596684 12.9159146,7.12126148 C13.811384,7.33580103 13.5035664,8.16597579 13.5035664,10.1434707 C13.5035664,10.7870894 13.4102884,11.6639032 13.8486953,11.9717208 C14.0445792,12.1023101 14.5296251,11.9903764 15.74224,9.9475868 C16.3019083,8.97749494 16.7309874,7.83017476 16.7309874,7.83017476 C16.7309874,7.83017476 16.8242655,7.63429083 16.9641826,7.54101277 C17.1134275,7.46639032 17.3186392,7.46639032 17.3186392,7.46639032 L20.0237031,7.46639032 C20.0237031,7.46639032 20.84455,7.37311225 20.9751393,7.7368967 C21.1150564,8.11933676 20.6673217,9.02413397 19.5573127,10.4885996 C17.7477183,12.9138292 17.5425066,12.6899619 19.0442834,14.0891328 L19.0442834,14.0891328 Z"
                                  id="path-1"></path>
                        </g>
                    </g>
                </g>
            </g>
        </g>
    </symbol>

    <symbol id="wreath" viewBox="0 0 52 47">
        <g stroke="none" stroke-width="1" fill="inherit" fill-rule="evenodd">
            <g id="Icons" transform="translate(-134.000000, -449.000000)">
                <g id="Atoms-/-Icons-/-56x56-/-wreath" transform="translate(132.000000, 444.000000)">
                    <g id="Colors-/-Black-/-Lightest" mask="url(#mask-2)" fill="inherit" fill-rule="evenodd">
                        <path d="M51.9326718,30.9601663 C52.8128376,30.4933324 53.916719,28.4757699 53.916719,28.4757699 C53.916719,28.4757699 51.6077126,28.2738521 50.7275468,28.7423013 C50.6409999,28.7891463 50.5707826,28.858606 50.4891345,28.9135276 C50.6083407,28.1010104 50.6883557,27.2755705 50.7210149,26.4372079 C51.2729557,26.584204 52.0682075,26.3370566 52.6446426,25.8314545 C53.3941716,25.1756255 54,22.9626065 54,22.9626065 C54,22.9626065 51.7073232,23.2921364 50.9577942,23.9479654 C50.8647155,24.0287325 50.80103,24.130499 50.719382,24.2225735 C50.6671272,23.3535194 50.5560859,22.5006186 50.4091195,21.6606406 C50.9741239,21.6638713 51.6762969,21.242267 52.1188293,20.6300522 C52.6968974,19.8239964 52.7785454,17.533441 52.7785454,17.533441 C52.7785454,17.533441 50.6197714,18.3669577 50.0417033,19.1730135 C49.9812838,19.2570113 49.9486245,19.3539318 49.8980028,19.444391 C49.7102123,18.783716 49.4864967,18.137579 49.2382866,17.5027495 C49.803291,17.410675 50.4254491,16.863074 50.7373446,16.1668614 C51.1488506,15.2655004 50.7830675,13.0024058 50.7830675,13.0024058 C50.7830675,13.0024058 48.8267806,14.2332967 48.4185404,15.1346577 C48.3711845,15.2364243 48.3548549,15.3462675 48.3221957,15.4528801 C47.9743751,14.772821 47.5906293,14.112146 47.1774903,13.4740858 C47.6902399,13.2624759 48.1784952,12.6454152 48.3695516,11.945972 C48.6340912,10.9913046 47.9172215,8.81382321 47.9172215,8.81382321 C47.9172215,8.81382321 46.1797513,10.3306296 45.9168446,11.2852969 C45.8825524,11.4064476 45.8825524,11.5324443 45.8678558,11.6568257 C45.3306117,10.9832279 44.7590755,10.3387064 44.1499812,9.7297223 C44.615375,9.41796123 44.9631956,8.68782651 44.9909559,7.94799973 C45.026881,6.96102557 43.8282879,5 43.8282879,5 C43.8282879,5 42.4859942,6.8705664 42.4468032,7.85754056 C42.4435372,7.97061452 42.4468032,8.08530382 42.4598669,8.19676244 C41.9585479,7.78646549 41.4425323,7.39393731 40.9069212,7.02563926 C40.7615877,6.53780588 40.3664113,6.019281 39.8226353,5.6945972 C38.9685969,5.18576437 36.6530587,5.27299285 36.6530587,5.27299285 C36.6530587,5.27299285 37.6524306,7.33901567 38.509735,7.84946384 C38.8885818,8.07561177 39.3196835,8.18868573 39.7213918,8.21453121 C40.129632,8.4891394 40.5346062,8.77343965 40.9216179,9.07550866 C39.879789,9.18535194 38.1668132,10.2062483 38.1668132,10.2062483 C38.1668132,10.2062483 40.0545158,11.5324443 41.0538877,11.5695972 C41.8197463,11.597058 42.5937696,11.2933737 42.9285266,10.8394625 C43.3400327,11.2481441 43.7286773,11.6794405 44.1075242,12.1204289 C43.0558975,12.017047 41.207386,12.6082623 41.207386,12.6082623 C41.207386,12.6082623 42.7391031,14.3253712 43.7058159,14.5854413 C44.4586107,14.7873591 45.2897877,14.6532857 45.7127245,14.2672189 C46.0197211,14.7340528 46.3022233,15.2121941 46.5683959,15.7032582 C45.5722899,15.4028045 43.5539505,15.7161809 43.5539505,15.7161809 C43.5539505,15.7161809 44.7966336,17.6497457 45.7078257,18.0535812 C46.3871373,18.3556503 47.1938199,18.3701883 47.6820751,18.1004262 C47.8470041,18.5220305 47.9956036,18.9517116 48.1327723,19.3862387 C47.2232132,18.8903286 45.152619,18.8111768 45.152619,18.8111768 C45.152619,18.8111768 45.9984927,20.945044 46.81334,21.5168752 C47.4273332,21.9481716 48.227484,22.1193979 48.7630951,21.9368642 C48.8643387,22.5103107 48.9427208,23.0918339 48.9998744,23.6814339 C48.1899259,23.0175282 46.2809948,22.502234 46.2809948,22.502234 C46.2809948,22.502234 46.6157518,24.7701746 47.2803668,25.508386 C47.771888,26.0576024 48.4985555,26.3984396 49.058661,26.3515947 C49.0374325,26.9395793 48.9998744,27.5243332 48.93129,28.1010104 C48.3434242,27.2561864 46.5161412,26.2692123 46.5161412,26.2692123 C46.5161412,26.2692123 46.3120211,28.5533063 46.7872127,29.4223605 C47.1676925,30.123419 47.8682326,30.6274058 48.4544655,30.6370979 C48.3254616,31.1475461 48.1882929,31.6579942 48.0217309,32.1539043 C47.603693,31.2363899 45.7927396,29.9683462 45.7927396,29.9683462 C45.7927396,29.9683462 45.320814,32.213672 45.691496,33.1311864 C45.9593016,33.8080148 46.5210401,34.3717693 47.0566512,34.5187655 C46.8378344,34.9759073 46.6141188,35.4265878 46.3642758,35.8627303 C46.1274965,34.8870635 44.5843487,33.3072587 44.5843487,33.3072587 C44.5843487,33.3072587 43.697651,35.4249725 43.8854415,36.3957932 C44.0193443,37.1033132 44.4553448,37.7526808 44.946866,38.0079049 C44.6284386,38.4343552 44.3002135,38.8527289 43.949127,39.2549491 C43.9327974,38.2582829 42.6950132,36.3699478 42.6950132,36.3699478 C42.6950132,36.3699478 41.4131391,38.2792824 41.4066072,39.2646412 C41.4033413,39.9980066 41.7103379,40.731372 42.1561362,41.0673632 C41.7707574,41.4146618 41.373948,41.7538837 40.9657078,42.0737215 C40.9673408,42.0543374 40.9738726,42.0397993 40.9755056,42.0204152 C41.0947117,41.0399024 40.0675794,38.9835716 40.0675794,38.9835716 C40.0675794,38.9835716 38.5717875,40.731372 38.4509484,41.7102695 C38.3644015,42.3854825 38.5587238,43.0736184 38.9098103,43.4774539 C38.4035925,43.7827536 37.8892099,44.0702846 37.3568647,44.33197 C37.4107524,44.1898199 37.4581083,44.0444391 37.4875016,43.8942123 C37.678558,42.9233915 36.8016581,40.8024471 36.8016581,40.8024471 C36.8016581,40.8024471 35.1817611,42.4420195 34.9923376,43.4128403 C34.8600678,44.0783613 35.0054013,44.7794199 35.3254616,45.2074856 C34.3930411,45.5547842 33.4246954,45.822931 32.4383871,46.0442329 C31.8586861,44.1542824 30.1016204,42.7683187 28.0032659,42.7683187 C25.9032785,42.7683187 24.1478457,44.1510517 23.5681447,46.0442329 C22.5818365,45.8261617 21.6134908,45.5547842 20.6810702,45.2074856 C21.0011305,44.7778045 21.146464,44.0783613 21.0141942,43.4128403 C20.8247708,42.4404042 19.2048738,40.8024471 19.2048738,40.8024471 C19.2048738,40.8024471 18.3263409,42.9233915 18.5190303,43.8942123 C18.5484236,44.0444391 18.5957794,44.1898199 18.6496671,44.33197 C18.1173219,44.0702846 17.6013064,43.7827536 17.0967215,43.4774539 C17.4445421,43.0736184 17.6404974,42.3854825 17.5555835,41.7102695 C17.4347444,40.731372 15.9373194,38.9835716 15.9373194,38.9835716 C15.9373194,38.9835716 14.9118201,41.0366717 15.0310263,42.0204152 C15.0326592,42.0397993 15.0391911,42.0543374 15.040824,42.0737215 C14.6309509,41.7538837 14.2357744,41.4162772 13.8503957,41.0673632 C14.294561,40.731372 14.6031906,39.9963913 14.5982917,39.2646412 C14.5933928,38.2760517 13.3098857,36.3699478 13.3098857,36.3699478 C13.3098857,36.3699478 12.0737345,38.2582829 12.0574048,39.2549491 C11.7079513,38.8527289 11.3780932,38.4327399 11.0596659,38.0079049 C11.551187,37.7526808 11.9855546,37.1033132 12.1210903,36.3957932 C12.3105138,35.4217418 11.4221831,33.3072587 11.4221831,33.3072587 C11.4221831,33.3072587 9.8790353,34.8886789 9.642256,35.8627303 C9.39404597,35.4249725 9.1686974,34.9759073 8.95151363,34.5187655 C9.48875769,34.370154 10.0472302,33.8080148 10.3166688,33.1311864 C10.6857179,32.2104413 10.2137922,29.9683462 10.2137922,29.9683462 C10.2137922,29.9683462 8.40120588,31.2347745 7.98316794,32.1539043 C7.81660595,31.6547635 7.67943726,31.1475461 7.55206632,30.6370979 C8.13666625,30.6274058 8.83720638,30.123419 9.21768622,29.4223605 C9.69287778,28.551691 9.49039065,26.2692123 9.49039065,26.2692123 C9.49039065,26.2692123 7.65984173,27.2561864 7.07360884,28.1010104 C7.00502449,27.5259486 6.9674664,26.9411947 6.94623791,26.3515947 C7.50471046,26.3984396 8.23301093,26.0559871 8.72453209,25.508386 C9.38914709,24.7701746 9.72390403,22.502234 9.72390403,22.502234 C9.72390403,22.502234 7.81660595,23.0175282 7.00502449,23.6814339 C7.0589122,23.0934493 7.13892727,22.5103107 7.24180379,21.9368642 C7.77578194,22.1193979 8.57756563,21.9481716 9.19155885,21.5168752 C10.0064062,20.9466593 10.8506469,18.8111768 10.8506469,18.8111768 C10.8506469,18.8111768 8.78005276,18.8903286 7.87049366,19.3862387 C8.00766235,18.9500962 8.15789474,18.5220305 8.32282377,18.1004262 C8.81271197,18.3701883 9.61939455,18.3540349 10.2954403,18.0535812 C11.2082653,17.651361 12.4509484,15.7161809 12.4509484,15.7161809 C12.4509484,15.7161809 10.4260771,15.4076505 9.42833815,15.7081042 C9.6961437,15.2170401 9.98027886,14.7372835 10.2856425,14.2720649 C10.7102123,14.6565164 11.5413893,14.7922051 12.2941841,14.5902873 C13.2592639,14.3302172 14.792614,12.6131083 14.792614,12.6131083 C14.792614,12.6131083 12.9408366,12.0235084 11.8908429,12.1268903 C12.2680568,11.6859018 12.6567014,11.2546054 13.0682075,10.8459238 C13.4045974,11.299835 14.1802537,11.601904 14.9444793,11.5760586 C15.9422183,11.540521 17.8315538,10.2127097 17.8315538,10.2127097 C17.8315538,10.2127097 16.1185781,9.19181331 15.0767492,9.08197003 C15.4653938,8.77990102 15.8687351,8.49721611 16.2786082,8.22260792 C16.6786836,8.19676244 17.1114182,8.08368848 17.490265,7.85754056 C18.3459364,7.34709238 19.3453084,5.28106956 19.3453084,5.28106956 C19.3453084,5.28106956 17.0314031,5.19222574 16.1757317,5.70105856 C15.6319558,6.02412703 15.2367793,6.54426725 15.0898128,7.03048529 C14.5542017,7.39878334 14.0381862,7.79292686 13.5385002,8.20160847 C13.548298,8.08853451 13.5531968,7.97546054 13.5499309,7.86238658 C13.5123728,6.87379709 12.1700791,5.00484603 12.1700791,5.00484603 C12.1700791,5.00484603 10.9682201,6.96425626 11.0057782,7.95284575 C11.0335385,8.69267253 11.3797262,9.42280726 11.84512,9.73295298 C11.2376586,10.3435524 10.6661223,10.988074 10.1288783,11.6616717 C10.1125487,11.5372903 10.1125487,11.4112936 10.0798895,11.290143 C9.81698279,10.3354757 8.07951262,8.81866923 8.07951262,8.81866923 C8.07951262,8.81866923 7.36100992,10.997766 7.62554955,11.950818 C7.81823891,12.6518765 8.30649416,13.2689373 8.82087677,13.4805472 C8.40773772,14.1186074 8.02399196,14.7760517 7.67617134,15.4593415 C7.64351212,15.3527289 7.62718251,15.2428856 7.58145962,15.1411191 C7.17158648,14.239758 5.21529959,13.0088672 5.21529959,13.0088672 C5.21529959,13.0088672 4.84951639,15.2703464 5.26102248,16.1717075 C5.5761839,16.8663046 6.19834192,17.415521 6.76008039,17.5075955 C6.51350333,18.1408097 6.28978772,18.7869467 6.10036428,19.4476217 C6.04974249,19.3571625 6.01708328,19.260242 5.95666374,19.1762442 C5.37859565,18.368573 3.21982163,17.5350564 3.21982163,17.5350564 C3.21982163,17.5350564 3.30146966,19.8256118 3.88117071,20.6316676 C4.32207009,21.242267 5.02587615,21.6654867 5.59088054,21.662256 C5.44064816,22.502234 5.33123979,23.3551347 5.27898505,24.2241889 C5.19896998,24.1321144 5.13201859,24.0303478 5.04057279,23.9495807 C4.2926768,23.2921364 2,22.9658372 2,22.9658372 C2,22.9658372 2.60419545,25.1788562 3.35372441,25.8346852 C3.93015953,26.3402873 4.72541138,26.5874347 5.27735209,26.4404385 C5.31001131,27.2788012 5.38676046,28.1026258 5.50923251,28.9167583 C5.42758447,28.8618367 5.35900013,28.792377 5.27082025,28.745532 C4.39065444,28.2754674 2.08164803,28.4790005 2.08164803,28.4790005 C2.08164803,28.4790005 3.18552946,30.4949478 4.06569526,30.9650124 C4.69601809,31.2993882 5.45534481,31.368848 5.96319558,31.1669302 C6.12649165,31.803375 6.31264916,32.4252818 6.52983294,33.0407272 C6.4563497,33.0035744 6.3942972,32.9502681 6.31754805,32.9211919 C5.38839342,32.5577399 3.12021103,33.0278045 3.12021103,33.0278045 C3.12021103,33.0278045 4.45433991,34.8999863 5.3851275,35.2618229 C6.10689612,35.5461232 6.94623791,35.5025089 7.4116317,35.1713638 C7.70719759,35.7916552 8.02562492,36.3974086 8.37344555,36.9870085 C8.29996232,36.9660091 8.22484612,36.9433943 8.14972993,36.9304715 C7.16832056,36.7447072 5.02750911,37.6218381 5.02750911,37.6218381 C5.02750911,37.6218381 6.69149604,39.2177963 7.67453837,39.4035606 C8.44692878,39.5489414 9.26994096,39.3454083 9.6585856,38.923804 C10.0782565,39.4907891 10.5207888,40.0351595 10.9910815,40.5633764 C10.9273961,40.5601457 10.8653435,40.5504537 10.8016581,40.552069 C9.80228614,40.5585304 7.87375958,41.8298048 7.87375958,41.8298048 C7.87375958,41.8298048 9.81698279,43.0752337 10.8163547,43.072003 C11.5871122,43.0655417 12.3529707,42.7247044 12.6648662,42.2514091 C13.1155634,42.6617061 13.5776912,43.0558496 14.0594146,43.4289937 C14.0169577,43.4322244 13.9745007,43.4225323 13.9320437,43.4273783 C12.9392036,43.548529 11.1739731,45.0314133 11.1739731,45.0314133 C11.1739731,45.0314133 13.2494661,46.0474636 14.2406733,45.9263129 C15.0620525,45.8261617 15.829544,45.3447897 16.0271323,44.7891119 C16.412511,45.0249519 16.7913579,45.2753299 17.1914332,45.4901705 C16.2100239,45.894006 14.8840598,47.1749725 14.8840598,47.1749725 C14.8840598,47.1749725 17.0265042,48.03595 18.0062806,47.8437242 C18.7982665,47.691882 19.5118704,47.1782032 19.693129,46.6289868 C20.8753925,47.09259 22.1082779,47.4560421 23.3754553,47.7209582 C23.5469162,50.1100495 25.5407612,52 27.998367,52 C30.4559729,52 32.4498179,50.1100495 32.6212787,47.7209582 C33.8884562,47.4560421 35.1213415,47.09259 36.305238,46.6289868 C36.4832307,47.1782032 37.1984675,47.691882 37.9904535,47.8437242 C38.9718628,48.03595 41.1159402,47.1685111 41.1159402,47.1685111 C41.1159402,47.1685111 39.7899761,45.8875447 38.8085668,45.4837091 C39.2086421,45.2672532 39.587489,45.0233365 39.9728677,44.7826505 C40.170456,45.336713 40.9395805,45.8213156 41.7593267,45.9198515 C42.7505339,46.0410022 44.8276598,45.0249519 44.8276598,45.0249519 C44.8276598,45.0249519 43.0607964,43.5420676 42.0695892,43.4193016 C42.0287652,43.4160709 41.9846753,43.425763 41.9422183,43.4225323 C42.4239417,43.0493882 42.8860696,42.6552447 43.3367667,42.2449478 C43.6486622,42.7182431 44.4145208,43.0590803 45.1869112,43.0655417 C46.1846502,43.072003 48.1295063,41.8233434 48.1295063,41.8233434 C48.1295063,41.8233434 46.2009798,40.552069 45.2016078,40.5456076 C45.1379224,40.5456076 45.0758699,40.5536844 45.0121844,40.556915 C45.4824771,40.0335441 45.9250094,39.4843277 46.3446803,38.9173426 C46.733325,39.3389469 47.5563371,39.5440954 48.3287275,39.3970993 C49.3117699,39.2129502 50.9757568,37.6153767 50.9757568,37.6153767 C50.9757568,37.6153767 48.8349454,36.7382458 47.853536,36.9223948 C47.7784198,36.9369329 47.7033036,36.9579324 47.6298204,36.9805472 C47.977641,36.3941779 48.2960683,35.7884245 48.5916342,35.1649024 C49.0553951,35.4960476 49.8947368,35.5380465 50.6181384,35.2553616 C51.548926,34.8935249 52.8830549,33.0197278 52.8830549,33.0197278 C52.8830549,33.0197278 50.6148725,32.5512785 49.6857179,32.9147305 C49.6089687,32.9470374 49.5469162,32.997113 49.473433,33.0342659 C49.6906168,32.4220511 49.8751413,31.7952983 50.0400703,31.1604688 C50.5430222,31.3640019 51.300716,31.2945422 51.9326718,30.9601663 Z"
                              id="path-2"></path>
                    </g>
                </g>
            </g>
        </g>
    </symbol>

</svg>
