<svg xmlns="http://www.w3.org/2000/svg" style="display: none!important; visibility: hidden!important">

    <symbol id="crown" viewBox="0 0 16 11">
        <g stroke="none" stroke-width="1" fill="inherit" fill-rule="evenodd">
            <g id="Icons" transform="translate(-1192.000000, -191.000000)" fill="inherit">
                <g id="Stacked-Group-3" transform="translate(132.000000, 184.000000)">
                    <g id="Atoms-/-Icons-/-crown_24px" transform="translate(1056.000000, 0.000000)">
                        <path d="M19.3704673,10.3190977 C19.3729196,10.3622653 19.3696897,10.4061954 19.3586243,10.4498323 L18.3717084,14.3208422 C18.3219439,14.515859 18.1437009,14.6529866 17.9387813,14.6540423 L12.017286,14.6833681 C12.0165084,14.6833681 12.0157907,14.6833681 12.0150131,14.6833681 L6.09345794,14.6833681 C5.88746168,14.6833681 5.70796262,14.5457713 5.65819813,14.3497574 L4.67128224,10.4640846 C4.65991776,10.4192748 4.65662804,10.374113 4.65949907,10.329831 C4.27771215,10.2118825 4,9.86155608 4,9.44870701 C4,8.9393173 4.42257944,8.52494329 4.94205607,8.52494329 C5.46153271,8.52494329 5.88411215,8.9393173 5.88411215,9.44870701 C5.88411215,9.73557231 5.75007103,9.99223199 5.54018692,10.161794 L6.77580561,11.3825697 C7.08808972,11.6911361 7.52143551,11.8680295 7.96477009,11.8680295 C8.48897196,11.8680295 8.98877009,11.6239213 9.30350654,11.2149433 L11.3341607,8.57655676 C11.1635738,8.40939951 11.0579439,8.17842925 11.0579439,7.92376372 C11.0579439,7.41437401 11.4805234,7 12,7 C12.5194766,7 12.9420561,7.41437401 12.9420561,7.92376372 C12.9420561,8.17080454 12.8420486,8.39502985 12.6803738,8.56095541 C12.6809121,8.56165923 12.6815701,8.56224575 12.6821084,8.56300822 L14.6980486,11.2086675 C15.0126654,11.6215752 15.5142579,11.8680882 16.0399551,11.8680882 C16.487357,11.8680882 16.9080822,11.6972359 17.2244336,11.3869686 L18.467828,10.1677178 C18.2535178,9.99821446 18.1158879,9.73909141 18.1158879,9.44870701 C18.1158879,8.9393173 18.5384673,8.52494329 19.0579439,8.52494329 C19.5774206,8.52494329 20,8.9393173 20,9.44870701 C20,9.85052957 19.7365234,10.1922928 19.3704673,10.3190977 Z M18.2754093,16.0616822 C18.2754093,15.818747 18.074557,15.6217948 17.8268112,15.6217948 L6.2230729,15.6217948 C5.9753271,15.6217948 5.77447477,15.818747 5.77447477,16.0616822 L5.77447477,17.1174122 C5.77447477,17.3603474 5.9753271,17.5572997 6.2230729,17.5572997 L17.8268112,17.5572997 C18.074557,17.5572997 18.2754093,17.3603474 18.2754093,17.1174122 L18.2754093,16.0616822 Z" id="Mask"></path>
                    </g>
                </g>
            </g>
        </g>
    </symbol>

    <symbol id="expand_more" viewBox="0 0 12 8">
        <g stroke="none" stroke-width="1" fill="inherit" fill-rule="evenodd">
            <g id="Icons" transform="translate(-490.000000, -192.000000)">
                <g id="Stacked-Group-3" transform="translate(132.000000, 184.000000)">
                    <g id="Atoms-/-Icons-/-navigation/expand_more_24px" transform="translate(352.000000, 0.000000)">
                        <g id="Colors-/-Black-/-Lightest" class="expand_more_24px" mask="url(#mask-2)" fill="inherit" fill-rule="evenodd">
                            <path d="M15.875,8.9999928 L11.995,12.8799928 L8.115,8.9999928 C7.92816847,8.81274013 7.67451764,8.7075072 7.41,8.7075072 C7.14548236,8.7075072 6.89183153,8.81274013 6.705,8.9999928 C6.315,9.3899928 6.315,10.0199928 6.705,10.4099928 L11.295,14.9999928 C11.685,15.3899928 12.315,15.3899928 12.705,14.9999928 L17.295,10.4099928 C17.685,10.0199928 17.685,9.3899928 17.295,8.9999928 C16.905,8.6199928 16.265,8.6099928 15.875,8.9999928 Z" id="path-1"></path>
                        </g>
                    </g>
                </g>
            </g>
        </g>
    </symbol>

    <symbol id="arrow_forward" viewBox="0 0 16 16">
        <g stroke="none" stroke-width="1" fill="inherit" fill-rule="evenodd">
            <g id="Icons" transform="translate(-224.000000, -188.000000)">
                <g id="Stacked-Group-3" transform="translate(132.000000, 184.000000)">
                    <g id="Atoms-/-Icons-/-navigation/arrow_forward_24px" transform="translate(88.000000, 0.000000)">
                        <g id="Colors-/-Black-/-Lightest" mask="url(#mask-2)" fill="inherit" fill-rule="evenodd">
                            <path d="M5.20875,12.9999928 L16.37875,12.9999928 L11.49875,17.8799928 C11.10875,18.2699928 11.10875,18.9099928 11.49875,19.2999928 C11.88875,19.6899928 12.51875,19.6899928 12.90875,19.2999928 L19.49875,12.7099928 C19.88875,12.3199928 19.88875,11.6899928 19.49875,11.2999928 L12.91875,4.6999928 C12.7319185,4.51274013 12.4782676,4.4075072 12.21375,4.4075072 C11.9492324,4.4075072 11.6955815,4.51274013 11.50875,4.6999928 C11.11875,5.0899928 11.11875,5.7199928 11.50875,6.1099928 L16.37875,10.9999928 L5.20875,10.9999928 C4.65875,10.9999928 4.20875,11.4499928 4.20875,11.9999928 C4.20875,12.5499928 4.65875,12.9999928 5.20875,12.9999928 Z" id="path-1"></path>
                        </g>
                    </g>
                </g>
            </g>
        </g>
    </symbol>

</svg>
