<?xml version="1.0" encoding="UTF-8"?>
<svg width="16px" height="11px" viewBox="0 0 16 11" version="1.1" xmlns="http://www.w3.org/2000/svg" xmlns:xlink="http://www.w3.org/1999/xlink">
    <!-- Generator: Sketch 52.4 (67378) - http://www.bohemiancoding.com/sketch -->
    <title>Atoms / Icons / crown_24px</title>
    <desc>Created with Sketch.</desc>
    <g id="⚙️-UI-Kit" stroke="none" stroke-width="1" fill="none" fill-rule="evenodd">
        <g id="Icons" transform="translate(-1192.000000, -191.000000)" fill="#727B88">
            <g id="Stacked-Group-3" transform="translate(132.000000, 184.000000)">
                <g id="Atoms-/-Icons-/-crown_24px" transform="translate(1056.000000, 0.000000)">
                    <path d="M19.3704673,10.3190977 C19.3729196,10.3622653 19.3696897,10.4061954 19.3586243,10.4498323 L18.3717084,14.3208422 C18.3219439,14.515859 18.1437009,14.6529866 17.9387813,14.6540423 L12.017286,14.6833681 C12.0165084,14.6833681 12.0157907,14.6833681 12.0150131,14.6833681 L6.09345794,14.6833681 C5.88746168,14.6833681 5.70796262,14.5457713 5.65819813,14.3497574 L4.67128224,10.4640846 C4.65991776,10.4192748 4.65662804,10.374113 4.65949907,10.329831 C4.27771215,10.2118825 4,9.86155608 4,9.44870701 C4,8.9393173 4.42257944,8.52494329 4.94205607,8.52494329 C5.46153271,8.52494329 5.88411215,8.9393173 5.88411215,9.44870701 C5.88411215,9.73557231 5.75007103,9.99223199 5.54018692,10.161794 L6.77580561,11.3825697 C7.08808972,11.6911361 7.52143551,11.8680295 7.96477009,11.8680295 C8.48897196,11.8680295 8.98877009,11.6239213 9.30350654,11.2149433 L11.3341607,8.57655676 C11.1635738,8.40939951 11.0579439,8.17842925 11.0579439,7.92376372 C11.0579439,7.41437401 11.4805234,7 12,7 C12.5194766,7 12.9420561,7.41437401 12.9420561,7.92376372 C12.9420561,8.17080454 12.8420486,8.39502985 12.6803738,8.56095541 C12.6809121,8.56165923 12.6815701,8.56224575 12.6821084,8.56300822 L14.6980486,11.2086675 C15.0126654,11.6215752 15.5142579,11.8680882 16.0399551,11.8680882 C16.487357,11.8680882 16.9080822,11.6972359 17.2244336,11.3869686 L18.467828,10.1677178 C18.2535178,9.99821446 18.1158879,9.73909141 18.1158879,9.44870701 C18.1158879,8.9393173 18.5384673,8.52494329 19.0579439,8.52494329 C19.5774206,8.52494329 20,8.9393173 20,9.44870701 C20,9.85052957 19.7365234,10.1922928 19.3704673,10.3190977 Z M18.2754093,16.0616822 C18.2754093,15.818747 18.074557,15.6217948 17.8268112,15.6217948 L6.2230729,15.6217948 C5.9753271,15.6217948 5.77447477,15.818747 5.77447477,16.0616822 L5.77447477,17.1174122 C5.77447477,17.3603474 5.9753271,17.5572997 6.2230729,17.5572997 L17.8268112,17.5572997 C18.074557,17.5572997 18.2754093,17.3603474 18.2754093,17.1174122 L18.2754093,16.0616822 Z" id="Mask"></path>
                </g>
            </g>
        </g>
    </g>
</svg>