<?xml version="1.0" encoding="UTF-8"?>
<svg width="16px" height="16px" viewBox="0 0 16 16" version="1.1" xmlns="http://www.w3.org/2000/svg" xmlns:xlink="http://www.w3.org/1999/xlink">
    <!-- Generator: Sketch 52.4 (67378) - http://www.bohemiancoding.com/sketch -->
    <title>Atoms / Icons  / 16x16 / Sports / basketball</title>
    <desc>Created with Sketch.</desc>
    <defs>
        <path d="M13.8593701,12.3962045 C14.1445235,11.4307076 14.4310184,10.8083436 14.9633047,10.412728 C16.3357382,12.7990838 16.880589,16.0137751 16.9342822,18.2865276 C15.574544,19.3553865 13.8611697,19.9946994 11.9973497,19.9946994 C11.9113292,19.9946994 11.8259959,19.9909039 11.7406299,19.9881881 C12.3418896,18.6671247 12.8567362,16.5955665 13.3947812,14.2804744 C13.576998,13.496409 13.7345112,12.8192065 13.8593701,12.3962045 Z M12.6444826,5.29200818 C12.4929243,5.49313701 12.2152638,5.78561963 11.8471002,6.10244581 C10.7680654,5.33598364 9.79730061,4.81724335 9.17015951,4.51586094 C10.0493088,4.18339468 11.0018487,4 11.9973497,4 C12.2571452,4 12.5138323,4.01338241 12.767411,4.03759509 C12.7684908,4.05680164 12.7695706,4.0757137 12.7705521,4.09505112 C12.7963027,4.5436728 12.8253906,5.05223722 12.6444826,5.29200818 Z M16.6966053,9.85537832 C17.8299223,9.72682209 19.0589448,11.1768671 19.986683,12.3172188 C19.9058323,14.371501 19.0507648,16.2260941 17.7043436,17.5979714 C17.5746748,15.4261268 17.0447771,12.4282372 15.6856933,10.0553292 C15.9699959,9.96459714 16.3024294,9.89991002 16.6966053,9.85537832 Z M8.61706339,7.80714928 C8.29568916,7.87399591 7.96243763,7.93586912 7.64004908,7.99574642 C6.64350102,8.1807771 5.62889162,8.37068303 4.69205726,8.74395092 C5.41280982,7.12821268 6.6517137,5.79471575 8.1999182,4.95777505 C8.4475092,5.0593047 9.69217178,5.59270348 11.1844581,6.62049898 C10.469137,7.12782004 9.57199182,7.60844172 8.61706339,7.80714928 Z M14.1447198,8.03968916 C14.9600327,7.52723108 15.6462004,7.17758691 16.0770552,7.0488998 C16.7338732,6.85290798 17.3782904,6.73488753 17.956319,6.66522699 C19.0152965,7.84801636 19.7260041,9.3477955 19.931092,11.0048916 C18.9745276,9.91178732 17.8600245,8.91890389 16.6066258,9.06067894 C16.0746667,9.120818 15.6302658,9.22188957 15.2527771,9.36441718 C14.9935706,8.98597955 14.7109039,8.6282863 14.3993783,8.30125153 C14.3149611,8.21248262 14.229955,8.12534969 14.1447198,8.03968916 Z M13.0924499,12.1697505 C12.960818,12.615362 12.8010143,13.3030348 12.6158528,14.0994683 C12.2304785,15.7576115 11.582135,18.545636 10.8932843,19.9170879 C9.00142331,19.6556892 7.32086708,18.7342986 6.09289162,17.3907566 C6.46076074,14.1912147 10.5063395,10.4984213 13.4597301,8.48814724 C13.580728,8.60685481 13.7012025,8.72768916 13.8203354,8.85280982 C14.0778732,9.12320654 14.3156155,9.4208589 14.5365399,9.73801227 C13.800409,10.257865 13.4204663,11.0587485 13.0924499,12.1697505 Z M9.74380368,10.4079509 C8.02624131,11.9906421 6.0194683,14.2487362 5.43440491,16.5652025 C4.5313047,15.2700204 4,13.6960982 4,11.9973824 C4,11.2380204 4.10813906,10.5042454 4.30586503,9.80826176 C5.32116155,9.24178323 6.52845808,9.015591 7.78614315,8.78203681 C8.11255624,8.72143967 8.45019223,8.65871575 8.77991002,8.59010225 C9.95730061,8.34522699 11.038953,7.73356237 11.8650961,7.11253988 C12.1915746,7.36052352 12.5241391,7.63092025 12.8556892,7.92425358 C11.8610389,8.60813088 10.7735624,9.45904294 9.74380368,10.4079509 Z M13.5445726,7.46748466 C13.1957791,7.15020041 12.8460368,6.85807771 12.5018896,6.59020041 C12.8533006,6.27540286 13.1233701,5.98524335 13.2830102,5.77367689 C13.6190102,5.3281636 13.6056278,4.71496115 13.5749366,4.15643354 C14.9592474,4.43337423 16.2132352,5.06872802 17.2391002,5.96017996 C16.7951575,6.03599182 16.3263476,6.13994274 15.8484417,6.28266667 C15.3162536,6.44152147 14.496,6.86092434 13.5445726,7.46748466 Z" id="path-1"></path>
    </defs>
    <g id="⚙️-UI-Kit" stroke="none" stroke-width="1" fill="none" fill-rule="evenodd">
        <g id="Icons" transform="translate(-136.000000, -252.000000)">
            <g id="Stacked-Group" transform="translate(132.000000, 248.000000)">
                <g id="Atoms-/-Icons--/-16x16-/-Sports-/-basketball">
                    <mask id="mask-2" fill="white">
                        <use xlink:href="#path-1"></use>
                    </mask>
                    <use id="Mask" fill="#000000" fill-rule="nonzero" xlink:href="#path-1"></use>
                    <g id="Colors-/-Black-/-Lightest" mask="url(#mask-2)" fill="#727B88" fill-rule="evenodd">
                        <rect id="Rectangle-2" x="0" y="0" width="24" height="24"></rect>
                    </g>
                </g>
            </g>
        </g>
    </g>
</svg>