<?xml version="1.0" encoding="UTF-8"?>
<svg width="52px" height="47px" viewBox="0 0 52 47" version="1.1" xmlns="http://www.w3.org/2000/svg" xmlns:xlink="http://www.w3.org/1999/xlink">
    <!-- Generator: Sketch 52.4 (67378) - http://www.bohemiancoding.com/sketch -->
    <title>Atoms / Icons / 56x56 / wreath</title>
    <desc>Created with Sketch.</desc>
    <defs>
        <linearGradient x1="0%" y1="50%" x2="100%" y2="50%" id="linearGradient-1">
            <stop stop-color="#FFD100" offset="0%"></stop>
            <stop stop-color="#FFB31B" offset="100%"></stop>
        </linearGradient>
        <path d="M51.9326718,30.9601663 C52.8128376,30.4933324 53.916719,28.4757699 53.916719,28.4757699 C53.916719,28.4757699 51.6077126,28.2738521 50.7275468,28.7423013 C50.6409999,28.7891463 50.5707826,28.858606 50.4891345,28.9135276 C50.6083407,28.1010104 50.6883557,27.2755705 50.7210149,26.4372079 C51.2729557,26.584204 52.0682075,26.3370566 52.6446426,25.8314545 C53.3941716,25.1756255 54,22.9626065 54,22.9626065 C54,22.9626065 51.7073232,23.2921364 50.9577942,23.9479654 C50.8647155,24.0287325 50.80103,24.130499 50.719382,24.2225735 C50.6671272,23.3535194 50.5560859,22.5006186 50.4091195,21.6606406 C50.9741239,21.6638713 51.6762969,21.242267 52.1188293,20.6300522 C52.6968974,19.8239964 52.7785454,17.533441 52.7785454,17.533441 C52.7785454,17.533441 50.6197714,18.3669577 50.0417033,19.1730135 C49.9812838,19.2570113 49.9486245,19.3539318 49.8980028,19.444391 C49.7102123,18.783716 49.4864967,18.137579 49.2382866,17.5027495 C49.803291,17.410675 50.4254491,16.863074 50.7373446,16.1668614 C51.1488506,15.2655004 50.7830675,13.0024058 50.7830675,13.0024058 C50.7830675,13.0024058 48.8267806,14.2332967 48.4185404,15.1346577 C48.3711845,15.2364243 48.3548549,15.3462675 48.3221957,15.4528801 C47.9743751,14.772821 47.5906293,14.112146 47.1774903,13.4740858 C47.6902399,13.2624759 48.1784952,12.6454152 48.3695516,11.945972 C48.6340912,10.9913046 47.9172215,8.81382321 47.9172215,8.81382321 C47.9172215,8.81382321 46.1797513,10.3306296 45.9168446,11.2852969 C45.8825524,11.4064476 45.8825524,11.5324443 45.8678558,11.6568257 C45.3306117,10.9832279 44.7590755,10.3387064 44.1499812,9.7297223 C44.615375,9.41796123 44.9631956,8.68782651 44.9909559,7.94799973 C45.026881,6.96102557 43.8282879,5 43.8282879,5 C43.8282879,5 42.4859942,6.8705664 42.4468032,7.85754056 C42.4435372,7.97061452 42.4468032,8.08530382 42.4598669,8.19676244 C41.9585479,7.78646549 41.4425323,7.39393731 40.9069212,7.02563926 C40.7615877,6.53780588 40.3664113,6.019281 39.8226353,5.6945972 C38.9685969,5.18576437 36.6530587,5.27299285 36.6530587,5.27299285 C36.6530587,5.27299285 37.6524306,7.33901567 38.509735,7.84946384 C38.8885818,8.07561177 39.3196835,8.18868573 39.7213918,8.21453121 C40.129632,8.4891394 40.5346062,8.77343965 40.9216179,9.07550866 C39.879789,9.18535194 38.1668132,10.2062483 38.1668132,10.2062483 C38.1668132,10.2062483 40.0545158,11.5324443 41.0538877,11.5695972 C41.8197463,11.597058 42.5937696,11.2933737 42.9285266,10.8394625 C43.3400327,11.2481441 43.7286773,11.6794405 44.1075242,12.1204289 C43.0558975,12.017047 41.207386,12.6082623 41.207386,12.6082623 C41.207386,12.6082623 42.7391031,14.3253712 43.7058159,14.5854413 C44.4586107,14.7873591 45.2897877,14.6532857 45.7127245,14.2672189 C46.0197211,14.7340528 46.3022233,15.2121941 46.5683959,15.7032582 C45.5722899,15.4028045 43.5539505,15.7161809 43.5539505,15.7161809 C43.5539505,15.7161809 44.7966336,17.6497457 45.7078257,18.0535812 C46.3871373,18.3556503 47.1938199,18.3701883 47.6820751,18.1004262 C47.8470041,18.5220305 47.9956036,18.9517116 48.1327723,19.3862387 C47.2232132,18.8903286 45.152619,18.8111768 45.152619,18.8111768 C45.152619,18.8111768 45.9984927,20.945044 46.81334,21.5168752 C47.4273332,21.9481716 48.227484,22.1193979 48.7630951,21.9368642 C48.8643387,22.5103107 48.9427208,23.0918339 48.9998744,23.6814339 C48.1899259,23.0175282 46.2809948,22.502234 46.2809948,22.502234 C46.2809948,22.502234 46.6157518,24.7701746 47.2803668,25.508386 C47.771888,26.0576024 48.4985555,26.3984396 49.058661,26.3515947 C49.0374325,26.9395793 48.9998744,27.5243332 48.93129,28.1010104 C48.3434242,27.2561864 46.5161412,26.2692123 46.5161412,26.2692123 C46.5161412,26.2692123 46.3120211,28.5533063 46.7872127,29.4223605 C47.1676925,30.123419 47.8682326,30.6274058 48.4544655,30.6370979 C48.3254616,31.1475461 48.1882929,31.6579942 48.0217309,32.1539043 C47.603693,31.2363899 45.7927396,29.9683462 45.7927396,29.9683462 C45.7927396,29.9683462 45.320814,32.213672 45.691496,33.1311864 C45.9593016,33.8080148 46.5210401,34.3717693 47.0566512,34.5187655 C46.8378344,34.9759073 46.6141188,35.4265878 46.3642758,35.8627303 C46.1274965,34.8870635 44.5843487,33.3072587 44.5843487,33.3072587 C44.5843487,33.3072587 43.697651,35.4249725 43.8854415,36.3957932 C44.0193443,37.1033132 44.4553448,37.7526808 44.946866,38.0079049 C44.6284386,38.4343552 44.3002135,38.8527289 43.949127,39.2549491 C43.9327974,38.2582829 42.6950132,36.3699478 42.6950132,36.3699478 C42.6950132,36.3699478 41.4131391,38.2792824 41.4066072,39.2646412 C41.4033413,39.9980066 41.7103379,40.731372 42.1561362,41.0673632 C41.7707574,41.4146618 41.373948,41.7538837 40.9657078,42.0737215 C40.9673408,42.0543374 40.9738726,42.0397993 40.9755056,42.0204152 C41.0947117,41.0399024 40.0675794,38.9835716 40.0675794,38.9835716 C40.0675794,38.9835716 38.5717875,40.731372 38.4509484,41.7102695 C38.3644015,42.3854825 38.5587238,43.0736184 38.9098103,43.4774539 C38.4035925,43.7827536 37.8892099,44.0702846 37.3568647,44.33197 C37.4107524,44.1898199 37.4581083,44.0444391 37.4875016,43.8942123 C37.678558,42.9233915 36.8016581,40.8024471 36.8016581,40.8024471 C36.8016581,40.8024471 35.1817611,42.4420195 34.9923376,43.4128403 C34.8600678,44.0783613 35.0054013,44.7794199 35.3254616,45.2074856 C34.3930411,45.5547842 33.4246954,45.822931 32.4383871,46.0442329 C31.8586861,44.1542824 30.1016204,42.7683187 28.0032659,42.7683187 C25.9032785,42.7683187 24.1478457,44.1510517 23.5681447,46.0442329 C22.5818365,45.8261617 21.6134908,45.5547842 20.6810702,45.2074856 C21.0011305,44.7778045 21.146464,44.0783613 21.0141942,43.4128403 C20.8247708,42.4404042 19.2048738,40.8024471 19.2048738,40.8024471 C19.2048738,40.8024471 18.3263409,42.9233915 18.5190303,43.8942123 C18.5484236,44.0444391 18.5957794,44.1898199 18.6496671,44.33197 C18.1173219,44.0702846 17.6013064,43.7827536 17.0967215,43.4774539 C17.4445421,43.0736184 17.6404974,42.3854825 17.5555835,41.7102695 C17.4347444,40.731372 15.9373194,38.9835716 15.9373194,38.9835716 C15.9373194,38.9835716 14.9118201,41.0366717 15.0310263,42.0204152 C15.0326592,42.0397993 15.0391911,42.0543374 15.040824,42.0737215 C14.6309509,41.7538837 14.2357744,41.4162772 13.8503957,41.0673632 C14.294561,40.731372 14.6031906,39.9963913 14.5982917,39.2646412 C14.5933928,38.2760517 13.3098857,36.3699478 13.3098857,36.3699478 C13.3098857,36.3699478 12.0737345,38.2582829 12.0574048,39.2549491 C11.7079513,38.8527289 11.3780932,38.4327399 11.0596659,38.0079049 C11.551187,37.7526808 11.9855546,37.1033132 12.1210903,36.3957932 C12.3105138,35.4217418 11.4221831,33.3072587 11.4221831,33.3072587 C11.4221831,33.3072587 9.8790353,34.8886789 9.642256,35.8627303 C9.39404597,35.4249725 9.1686974,34.9759073 8.95151363,34.5187655 C9.48875769,34.370154 10.0472302,33.8080148 10.3166688,33.1311864 C10.6857179,32.2104413 10.2137922,29.9683462 10.2137922,29.9683462 C10.2137922,29.9683462 8.40120588,31.2347745 7.98316794,32.1539043 C7.81660595,31.6547635 7.67943726,31.1475461 7.55206632,30.6370979 C8.13666625,30.6274058 8.83720638,30.123419 9.21768622,29.4223605 C9.69287778,28.551691 9.49039065,26.2692123 9.49039065,26.2692123 C9.49039065,26.2692123 7.65984173,27.2561864 7.07360884,28.1010104 C7.00502449,27.5259486 6.9674664,26.9411947 6.94623791,26.3515947 C7.50471046,26.3984396 8.23301093,26.0559871 8.72453209,25.508386 C9.38914709,24.7701746 9.72390403,22.502234 9.72390403,22.502234 C9.72390403,22.502234 7.81660595,23.0175282 7.00502449,23.6814339 C7.0589122,23.0934493 7.13892727,22.5103107 7.24180379,21.9368642 C7.77578194,22.1193979 8.57756563,21.9481716 9.19155885,21.5168752 C10.0064062,20.9466593 10.8506469,18.8111768 10.8506469,18.8111768 C10.8506469,18.8111768 8.78005276,18.8903286 7.87049366,19.3862387 C8.00766235,18.9500962 8.15789474,18.5220305 8.32282377,18.1004262 C8.81271197,18.3701883 9.61939455,18.3540349 10.2954403,18.0535812 C11.2082653,17.651361 12.4509484,15.7161809 12.4509484,15.7161809 C12.4509484,15.7161809 10.4260771,15.4076505 9.42833815,15.7081042 C9.6961437,15.2170401 9.98027886,14.7372835 10.2856425,14.2720649 C10.7102123,14.6565164 11.5413893,14.7922051 12.2941841,14.5902873 C13.2592639,14.3302172 14.792614,12.6131083 14.792614,12.6131083 C14.792614,12.6131083 12.9408366,12.0235084 11.8908429,12.1268903 C12.2680568,11.6859018 12.6567014,11.2546054 13.0682075,10.8459238 C13.4045974,11.299835 14.1802537,11.601904 14.9444793,11.5760586 C15.9422183,11.540521 17.8315538,10.2127097 17.8315538,10.2127097 C17.8315538,10.2127097 16.1185781,9.19181331 15.0767492,9.08197003 C15.4653938,8.77990102 15.8687351,8.49721611 16.2786082,8.22260792 C16.6786836,8.19676244 17.1114182,8.08368848 17.490265,7.85754056 C18.3459364,7.34709238 19.3453084,5.28106956 19.3453084,5.28106956 C19.3453084,5.28106956 17.0314031,5.19222574 16.1757317,5.70105856 C15.6319558,6.02412703 15.2367793,6.54426725 15.0898128,7.03048529 C14.5542017,7.39878334 14.0381862,7.79292686 13.5385002,8.20160847 C13.548298,8.08853451 13.5531968,7.97546054 13.5499309,7.86238658 C13.5123728,6.87379709 12.1700791,5.00484603 12.1700791,5.00484603 C12.1700791,5.00484603 10.9682201,6.96425626 11.0057782,7.95284575 C11.0335385,8.69267253 11.3797262,9.42280726 11.84512,9.73295298 C11.2376586,10.3435524 10.6661223,10.988074 10.1288783,11.6616717 C10.1125487,11.5372903 10.1125487,11.4112936 10.0798895,11.290143 C9.81698279,10.3354757 8.07951262,8.81866923 8.07951262,8.81866923 C8.07951262,8.81866923 7.36100992,10.997766 7.62554955,11.950818 C7.81823891,12.6518765 8.30649416,13.2689373 8.82087677,13.4805472 C8.40773772,14.1186074 8.02399196,14.7760517 7.67617134,15.4593415 C7.64351212,15.3527289 7.62718251,15.2428856 7.58145962,15.1411191 C7.17158648,14.239758 5.21529959,13.0088672 5.21529959,13.0088672 C5.21529959,13.0088672 4.84951639,15.2703464 5.26102248,16.1717075 C5.5761839,16.8663046 6.19834192,17.415521 6.76008039,17.5075955 C6.51350333,18.1408097 6.28978772,18.7869467 6.10036428,19.4476217 C6.04974249,19.3571625 6.01708328,19.260242 5.95666374,19.1762442 C5.37859565,18.368573 3.21982163,17.5350564 3.21982163,17.5350564 C3.21982163,17.5350564 3.30146966,19.8256118 3.88117071,20.6316676 C4.32207009,21.242267 5.02587615,21.6654867 5.59088054,21.662256 C5.44064816,22.502234 5.33123979,23.3551347 5.27898505,24.2241889 C5.19896998,24.1321144 5.13201859,24.0303478 5.04057279,23.9495807 C4.2926768,23.2921364 2,22.9658372 2,22.9658372 C2,22.9658372 2.60419545,25.1788562 3.35372441,25.8346852 C3.93015953,26.3402873 4.72541138,26.5874347 5.27735209,26.4404385 C5.31001131,27.2788012 5.38676046,28.1026258 5.50923251,28.9167583 C5.42758447,28.8618367 5.35900013,28.792377 5.27082025,28.745532 C4.39065444,28.2754674 2.08164803,28.4790005 2.08164803,28.4790005 C2.08164803,28.4790005 3.18552946,30.4949478 4.06569526,30.9650124 C4.69601809,31.2993882 5.45534481,31.368848 5.96319558,31.1669302 C6.12649165,31.803375 6.31264916,32.4252818 6.52983294,33.0407272 C6.4563497,33.0035744 6.3942972,32.9502681 6.31754805,32.9211919 C5.38839342,32.5577399 3.12021103,33.0278045 3.12021103,33.0278045 C3.12021103,33.0278045 4.45433991,34.8999863 5.3851275,35.2618229 C6.10689612,35.5461232 6.94623791,35.5025089 7.4116317,35.1713638 C7.70719759,35.7916552 8.02562492,36.3974086 8.37344555,36.9870085 C8.29996232,36.9660091 8.22484612,36.9433943 8.14972993,36.9304715 C7.16832056,36.7447072 5.02750911,37.6218381 5.02750911,37.6218381 C5.02750911,37.6218381 6.69149604,39.2177963 7.67453837,39.4035606 C8.44692878,39.5489414 9.26994096,39.3454083 9.6585856,38.923804 C10.0782565,39.4907891 10.5207888,40.0351595 10.9910815,40.5633764 C10.9273961,40.5601457 10.8653435,40.5504537 10.8016581,40.552069 C9.80228614,40.5585304 7.87375958,41.8298048 7.87375958,41.8298048 C7.87375958,41.8298048 9.81698279,43.0752337 10.8163547,43.072003 C11.5871122,43.0655417 12.3529707,42.7247044 12.6648662,42.2514091 C13.1155634,42.6617061 13.5776912,43.0558496 14.0594146,43.4289937 C14.0169577,43.4322244 13.9745007,43.4225323 13.9320437,43.4273783 C12.9392036,43.548529 11.1739731,45.0314133 11.1739731,45.0314133 C11.1739731,45.0314133 13.2494661,46.0474636 14.2406733,45.9263129 C15.0620525,45.8261617 15.829544,45.3447897 16.0271323,44.7891119 C16.412511,45.0249519 16.7913579,45.2753299 17.1914332,45.4901705 C16.2100239,45.894006 14.8840598,47.1749725 14.8840598,47.1749725 C14.8840598,47.1749725 17.0265042,48.03595 18.0062806,47.8437242 C18.7982665,47.691882 19.5118704,47.1782032 19.693129,46.6289868 C20.8753925,47.09259 22.1082779,47.4560421 23.3754553,47.7209582 C23.5469162,50.1100495 25.5407612,52 27.998367,52 C30.4559729,52 32.4498179,50.1100495 32.6212787,47.7209582 C33.8884562,47.4560421 35.1213415,47.09259 36.305238,46.6289868 C36.4832307,47.1782032 37.1984675,47.691882 37.9904535,47.8437242 C38.9718628,48.03595 41.1159402,47.1685111 41.1159402,47.1685111 C41.1159402,47.1685111 39.7899761,45.8875447 38.8085668,45.4837091 C39.2086421,45.2672532 39.587489,45.0233365 39.9728677,44.7826505 C40.170456,45.336713 40.9395805,45.8213156 41.7593267,45.9198515 C42.7505339,46.0410022 44.8276598,45.0249519 44.8276598,45.0249519 C44.8276598,45.0249519 43.0607964,43.5420676 42.0695892,43.4193016 C42.0287652,43.4160709 41.9846753,43.425763 41.9422183,43.4225323 C42.4239417,43.0493882 42.8860696,42.6552447 43.3367667,42.2449478 C43.6486622,42.7182431 44.4145208,43.0590803 45.1869112,43.0655417 C46.1846502,43.072003 48.1295063,41.8233434 48.1295063,41.8233434 C48.1295063,41.8233434 46.2009798,40.552069 45.2016078,40.5456076 C45.1379224,40.5456076 45.0758699,40.5536844 45.0121844,40.556915 C45.4824771,40.0335441 45.9250094,39.4843277 46.3446803,38.9173426 C46.733325,39.3389469 47.5563371,39.5440954 48.3287275,39.3970993 C49.3117699,39.2129502 50.9757568,37.6153767 50.9757568,37.6153767 C50.9757568,37.6153767 48.8349454,36.7382458 47.853536,36.9223948 C47.7784198,36.9369329 47.7033036,36.9579324 47.6298204,36.9805472 C47.977641,36.3941779 48.2960683,35.7884245 48.5916342,35.1649024 C49.0553951,35.4960476 49.8947368,35.5380465 50.6181384,35.2553616 C51.548926,34.8935249 52.8830549,33.0197278 52.8830549,33.0197278 C52.8830549,33.0197278 50.6148725,32.5512785 49.6857179,32.9147305 C49.6089687,32.9470374 49.5469162,32.997113 49.473433,33.0342659 C49.6906168,32.4220511 49.8751413,31.7952983 50.0400703,31.1604688 C50.5430222,31.3640019 51.300716,31.2945422 51.9326718,30.9601663 Z" id="path-2"></path>
    </defs>
    <g id="⚙️-UI-Kit" stroke="none" stroke-width="1" fill="none" fill-rule="evenodd">
        <g id="Icons" transform="translate(-134.000000, -449.000000)">
            <g id="Atoms-/-Icons-/-56x56-/-wreath" transform="translate(132.000000, 444.000000)">
                <mask id="mask-3" fill="white">
                    <use xlink:href="#path-2"></use>
                </mask>
                <use id="Mask" fill="url(#linearGradient-1)" fill-rule="nonzero" xlink:href="#path-2"></use>
            </g>
        </g>
    </g>
</svg>