<?xml version="1.0" encoding="UTF-8"?>
<svg width="20px" height="20px" viewBox="0 0 20 20" version="1.1" xmlns="http://www.w3.org/2000/svg" xmlns:xlink="http://www.w3.org/1999/xlink">
    <!-- Generator: Sketch 52.4 (67378) - http://www.bohemiancoding.com/sketch -->
    <title>Atoms / Icons /action/info_24px</title>
    <desc>Created with Sketch.</desc>
    <g id="⚙️-UI-Kit" stroke="none" stroke-width="1" fill="none" fill-rule="evenodd">
        <g id="Icons" transform="translate(-1058.000000, -186.000000)" fill="#727B88">
            <g id="Stacked-Group-3" transform="translate(132.000000, 184.000000)">
                <g id="Atoms-/-Icons-/action/info_24px" transform="translate(924.000000, 0.000000)">
                    <path d="M12,2 C6.48,2 2,6.48 2,12 C2,17.52 6.48,22 12,22 C17.52,22 22,17.52 22,12 C22,6.48 17.52,2 12,2 Z M12,17 C11.45,17 11,16.55 11,16 L11,12 C11,11.45 11.45,11 12,11 C12.55,11 13,11.45 13,12 L13,16 C13,16.55 12.55,17 12,17 Z M12,9 L12,9 C11.4477153,9 11,8.55228475 11,8 L11,8 C11,7.44771525 11.4477153,7 12,7 L12,7 C12.5522847,7 13,7.44771525 13,8 L13,8 C13,8.55228475 12.5522847,9 12,9 Z" id="icon/action/info_24px"></path>
                </g>
            </g>
        </g>
    </g>
</svg>