<?xml version="1.0" encoding="UTF-8"?>
<svg width="16px" height="14px" viewBox="0 0 16 14" version="1.1" xmlns="http://www.w3.org/2000/svg" xmlns:xlink="http://www.w3.org/1999/xlink">
    <!-- Generator: Sketch 52.4 (67378) - http://www.bohemiancoding.com/sketch -->
    <title>Atoms / Icons /action/view_headline_24px</title>
    <desc>Created with Sketch.</desc>
    <g id="⚙️-UI-Kit" stroke="none" stroke-width="1" fill="none" fill-rule="evenodd">
        <g id="Icons" transform="translate(-1148.000000, -189.000000)" fill="#727B88">
            <g id="Stacked-Group-3" transform="translate(132.000000, 184.000000)">
                <g id="Atoms-/-Icons-/action/view_headline_24px" transform="translate(1012.000000, 0.000000)">
                    <path d="M5,15 L19,15 C19.55,15 20,14.55 20,14 C20,13.45 19.55,13 19,13 L5,13 C4.45,13 4,13.45 4,14 C4,14.55 4.45,15 5,15 Z M5,19 L19,19 C19.55,19 20,18.55 20,18 C20,17.45 19.55,17 19,17 L5,17 C4.45,17 4,17.45 4,18 C4,18.55 4.45,19 5,19 Z M5,11 L19,11 C19.55,11 20,10.55 20,10 C20,9.45 19.55,9 19,9 L5,9 C4.45,9 4,9.45 4,10 C4,10.55 4.45,11 5,11 Z M4,6 C4,6.55 4.45,7 5,7 L19,7 C19.55,7 20,6.55 20,6 C20,5.45 19.55,5 19,5 L5,5 C4.45,5 4,5.45 4,6 Z" id="icon/action/view_headline_24px"></path>
                </g>
            </g>
        </g>
    </g>
</svg>