<?xml version="1.0" encoding="UTF-8"?>
<svg width="8px" height="15px" viewBox="0 0 8 15" version="1.1" xmlns="http://www.w3.org/2000/svg" xmlns:xlink="http://www.w3.org/1999/xlink">
    <!-- Generator: Sketch 52.4 (67378) - http://www.bohemiancoding.com/sketch -->
    <title>Atoms / Icons / 24x24/Socials/facebook</title>
    <desc>Created with Sketch.</desc>
    <defs>
        <path d="M9.56834765,7.77889262 C9.56834765,7.68913027 9.58081464,7.49526854 9.60574863,7.19855412 C9.63255266,6.90121635 9.74475559,6.59016489 9.94609752,6.26352968 C10.1455694,5.93814118 10.4690879,5.64579021 10.9191463,5.38710012 C11.3673347,5.12965672 12.0149949,5 12.860257,5 L15.2414526,5 L15.2414526,7.59500448 L13.4979437,7.59500448 C13.3252758,7.59500448 13.1644516,7.65983284 13.0192112,7.78761951 C12.8752174,7.91540618 12.8010388,8.03695936 12.8010388,8.14978564 L12.8010388,9.76426116 L15.2408292,9.76426116 C15.2152719,10.0802994 15.1872211,10.3876108 15.154807,10.6843252 L15.0581878,11.468499 C15.0195401,11.7334226 14.9802691,11.9790224 14.9416214,12.2052983 L12.783585,12.2052983 L12.783585,19.3999996 L9.56834765,19.3999996 L9.56834765,12.2046749 L8,12.2046749 L8,9.76426116 L9.56834765,9.76426116 L9.56834765,7.77889262 Z" id="path-1"></path>
    </defs>
    <g id="⚙️-UI-Kit" stroke="none" stroke-width="1" fill="none" fill-rule="evenodd">
        <g id="Icons" transform="translate(-184.000000, -317.000000)">
            <g id="Stacked-Group-2" transform="translate(132.000000, 312.000000)">
                <g id="Atoms-/-Icons-/-24x24/Socials/facebook" transform="translate(44.000000, 0.000000)">
                    <mask id="mask-2" fill="white">
                        <use xlink:href="#path-1"></use>
                    </mask>
                    <use id="Mask" fill="#000000" fill-rule="nonzero" xlink:href="#path-1"></use>
                    <g id="Colors-/-Black-/-Lightest" mask="url(#mask-2)" fill="#727B88" fill-rule="evenodd">
                        <rect id="Rectangle-2" x="0" y="0" width="24" height="24"></rect>
                    </g>
                </g>
            </g>
        </g>
    </g>
</svg>