<?xml version="1.0" encoding="UTF-8"?>
<svg width="10px" height="16px" viewBox="0 0 10 16" version="1.1" xmlns="http://www.w3.org/2000/svg" xmlns:xlink="http://www.w3.org/1999/xlink">
    <!-- Generator: Sketch 52.4 (67378) - http://www.bohemiancoding.com/sketch -->
    <title>Atoms / Icons / 24x24/Socials/ok</title>
    <desc>Created with Sketch.</desc>
    <defs>
        <path d="M11.0161558,15.2697692 C9.77580255,15.1404052 8.65744032,14.8349251 7.69994529,14.0860547 C7.58113816,13.9928858 7.45847691,13.9030683 7.35005912,13.7990073 C6.93096652,13.3965041 6.88873888,12.935519 7.22035993,12.4604581 C7.50405595,12.0539332 7.98028992,11.9451803 8.47529172,12.1786053 C8.57114176,12.2238492 8.66246742,12.2803203 8.74993896,12.3409806 C10.534392,13.5670904 12.9857736,13.6009395 14.7769294,12.3961112 C14.9543861,12.2600443 15.1440753,12.149113 15.3639272,12.0924743 C15.7913983,11.982716 16.1900473,12.1397291 16.4194507,12.5137453 C16.6815302,12.9408813 16.6781788,13.3577955 16.3552714,13.6894165 C15.8599344,14.1978239 15.264223,14.5656401 14.6023215,14.8223573 C13.9764475,15.0649987 13.2909186,15.1871572 12.6124277,15.2682611 C12.7148129,15.3796952 12.7630731,15.4344906 12.8270848,15.4988374 C13.7483847,16.4244942 14.6737063,17.3462968 15.59199,18.2748022 C15.9048432,18.5911744 15.9701955,18.9834558 15.7979335,19.3514395 C15.6095848,19.7536075 15.1879787,20.0182006 14.7745835,19.9898812 C14.5126715,19.9717837 14.3084037,19.8414142 14.1269254,19.6585953 C13.4316774,18.9589905 12.723359,18.2722887 12.0421869,17.5594458 C11.8439516,17.3521617 11.7486043,17.3913731 11.5736612,17.5713433 C10.874224,18.2913916 10.163392,19.0003803 9.44837076,19.7053474 C9.12730662,20.0218871 8.745247,20.0788609 8.37290645,19.8980529 C7.97710609,19.7061852 7.72524836,19.3021739 7.74468648,18.8961518 C7.75809209,18.6215046 7.89315351,18.4117069 8.08166977,18.2235258 C8.99341819,17.3131179 9.90265305,16.4003641 10.8122231,15.4884481 C10.8723807,15.4277878 10.9285166,15.3634409 11.0161558,15.2697692 Z M11.7717289,12.0985068 C9.55896696,12.0909662 7.74451891,10.2565773 7.7574218,8.04029639 C7.77015713,5.79955024 9.58577816,3.99381583 11.8203242,4.00001592 C14.0593947,4.00604844 15.856583,5.8377562 15.8453558,8.10179458 C15.8339611,10.3135511 14.0069453,12.1062151 11.7717289,12.0985068 Z M13.7827366,8.04565863 C13.7788825,6.94522638 12.9024913,6.06917038 11.8042375,6.06816496 C10.6967673,6.06699197 9.81250039,6.95896712 9.82104646,8.06945357 C9.82925739,9.16569656 10.7131892,10.0355525 11.8144593,10.0315308 C12.912378,10.0276767 13.7864231,9.1459233 13.7827366,8.04565863 Z" id="path-1"></path>
    </defs>
    <g id="⚙️-UI-Kit" stroke="none" stroke-width="1" fill="none" fill-rule="evenodd">
        <g id="Icons" transform="translate(-227.000000, -316.000000)">
            <g id="Stacked-Group-2" transform="translate(132.000000, 312.000000)">
                <g id="Atoms-/-Icons-/-24x24/Socials/ok" transform="translate(88.000000, 0.000000)">
                    <mask id="mask-2" fill="white">
                        <use xlink:href="#path-1"></use>
                    </mask>
                    <use id="Mask" fill="#8D8D97" fill-rule="nonzero" xlink:href="#path-1"></use>
                    <g id="Colors-/-Black-/-Lightest" mask="url(#mask-2)" fill="#727B88" fill-rule="evenodd">
                        <rect id="Rectangle-2" x="0" y="0" width="24" height="24"></rect>
                    </g>
                </g>
            </g>
        </g>
    </g>
</svg>