<?xml version="1.0" encoding="UTF-8"?>
<svg width="18px" height="11px" viewBox="0 0 18 11" version="1.1" xmlns="http://www.w3.org/2000/svg" xmlns:xlink="http://www.w3.org/1999/xlink">
    <!-- Generator: Sketch 52.4 (67378) - http://www.bohemiancoding.com/sketch -->
    <title>Atoms / Icons / 24x24/Socials/vk</title>
    <desc>Created with Sketch.</desc>
    <defs>
        <path d="M19.0442834,14.0891328 C20.4900934,15.4323369 20.7885832,16.0759556 20.8352222,16.1599058 C21.4322018,17.1486533 20.1822758,17.2232757 20.1822758,17.2232757 L17.7757017,17.260587 C17.7757017,17.260587 17.2533446,17.3631928 16.5817425,16.8968025 C15.6769453,16.2811673 14.8094593,14.6674568 14.1658407,14.8819963 C13.5035664,15.0965359 13.522222,16.5423459 13.522222,16.5423459 C13.522222,16.5423459 13.522222,16.7475576 13.3729771,16.9061303 C13.2050766,17.0833586 12.8786034,17.018064 12.8786034,17.018064 L11.8059057,17.018064 C11.8059057,17.018064 9.42731507,17.260587 7.34721426,15.0872081 C5.06190171,12.7179453 3.04709554,8.05404211 3.04709554,8.05404211 C3.04709554,8.05404211 2.93516187,7.77420793 3.05642335,7.61563522 C3.19634044,7.46639032 3.58810831,7.46639032 3.58810831,7.46639032 L6.16258285,7.46639032 C6.16258285,7.46639032 6.41443363,7.46639032 6.57300633,7.61563522 C6.71292343,7.71824109 6.79687369,7.93278063 6.79687369,7.93278063 C6.79687369,7.93278063 7.20729716,8.96816713 7.76696554,9.91960338 C8.83966327,11.7758368 9.33403701,12.1769325 9.67916584,11.9810486 C10.2388342,11.6918866 10.0802615,9.359935 10.0802615,9.359935 C10.0802615,9.359935 10.0895893,8.51110462 9.80975513,8.13799237 C9.59521558,7.84883038 9.1847921,7.75555231 9.00756378,7.7368967 C8.85831888,7.71824109 9.10084185,7.38244006 9.40865946,7.22386735 C9.87504977,7 10.6865689,7 11.6566608,7 C12.4122131,7 12.6267526,7.05596684 12.9159146,7.12126148 C13.811384,7.33580103 13.5035664,8.16597579 13.5035664,10.1434707 C13.5035664,10.7870894 13.4102884,11.6639032 13.8486953,11.9717208 C14.0445792,12.1023101 14.5296251,11.9903764 15.74224,9.9475868 C16.3019083,8.97749494 16.7309874,7.83017476 16.7309874,7.83017476 C16.7309874,7.83017476 16.8242655,7.63429083 16.9641826,7.54101277 C17.1134275,7.46639032 17.3186392,7.46639032 17.3186392,7.46639032 L20.0237031,7.46639032 C20.0237031,7.46639032 20.84455,7.37311225 20.9751393,7.7368967 C21.1150564,8.11933676 20.6673217,9.02413397 19.5573127,10.4885996 C17.7477183,12.9138292 17.5425066,12.6899619 19.0442834,14.0891328 L19.0442834,14.0891328 Z" id="path-1"></path>
    </defs>
    <g id="⚙️-UI-Kit" stroke="none" stroke-width="1" fill="none" fill-rule="evenodd">
        <g id="Icons" transform="translate(-267.000000, -319.000000)">
            <g id="Stacked-Group-2" transform="translate(132.000000, 312.000000)">
                <g id="Atoms-/-Icons-/-24x24/Socials/vk" transform="translate(132.000000, 0.000000)">
                    <mask id="mask-2" fill="white">
                        <use xlink:href="#path-1"></use>
                    </mask>
                    <use id="Mask" fill="#8D8D97" fill-rule="evenodd" xlink:href="#path-1"></use>
                    <g id="Colors-/-Black-/-Lightest" mask="url(#mask-2)" fill="#727B88" fill-rule="evenodd">
                        <rect id="Rectangle-2" x="0" y="0" width="24" height="24"></rect>
                    </g>
                </g>
            </g>
        </g>
    </g>
</svg>